<svg width="34" height="28" fill="none" xmlns="http://www.w3.org/2000/svg"><path d="M33.388 1.022a1.79 1.79 0 0 0-2.525.169L11.81 22.966 3.095 13.67a1.791 1.791 0 0 0-2.611 2.45L10.55 26.857c.34.36.81.563 1.306.563h.03c.507-.007.983-.229 1.317-.61L33.558 3.547a1.79 1.79 0 0 0-.17-2.525z" fill="#000"/><path d="M33.388 1.022a1.79 1.79 0 0 0-2.525.169L11.81 22.966 3.095 13.67a1.791 1.791 0 0 0-2.611 2.45L10.55 26.857c.34.36.81.563 1.306.563h.03c.507-.007.983-.229 1.317-.61L33.558 3.547a1.79 1.79 0 0 0-.17-2.525z" fill="url(#a)"/><defs><linearGradient id="a" x1="17" y1=".58" x2="17" y2="27.42" gradientUnits="userSpaceOnUse"><stop stop-color="#B4C4FF"/><stop offset="1" stop-color="#FFDBE1"/></linearGradient></defs></svg>