<svg width="1920" height="691" fill="none" xmlns="http://www.w3.org/2000/svg"><path d="M850.14 49.651C469.77-27.47 121.856 81.876-2.5 110.56L-17 680l1995 11 62-641.349c-50-87.26-348.5-41.259-454 0-126.52 49.48-367 74.789-735.86 0z" fill="#FBFBFB"/><path d="M-2.5 215.559c124.357-28.682 472.271-138.03 852.641-60.907 368.859 74.789 609.339 49.48 735.859 0 105.5-41.259 404-87.26 454 0" stroke="#fff"/><path d="M-2.5 235.559c124.357-28.682 472.271-138.03 852.641-60.907 368.859 74.789 609.339 49.48 735.859 0 105.5-41.259 404-87.26 454 0" stroke="#fff"/><path d="M-2.5 255.559c124.357-28.682 472.271-138.03 852.641-60.907 368.859 74.789 609.339 49.48 735.859 0 105.5-41.259 404-87.26 454 0" stroke="#fff"/><path d="M-2.5 275.559c124.357-28.682 472.271-138.03 852.641-60.907 368.859 74.789 609.339 49.48 735.859 0 105.5-41.259 404-87.26 454 0" stroke="#fff"/><path d="M-2.5 295.559c124.357-28.682 472.271-138.03 852.641-60.907 368.859 74.789 609.339 49.48 735.859 0 105.5-41.259 404-87.26 454 0" stroke="#fff"/><path d="M-2.5 315.559c124.357-28.682 472.271-138.03 852.641-60.907 368.859 74.789 609.339 49.48 735.859 0 105.5-41.259 404-87.26 454 0" stroke="#fff"/><path d="M-2.5 335.559c124.357-28.682 472.271-138.03 852.641-60.907 368.859 74.789 609.339 49.48 735.859 0 105.5-41.259 404-87.26 454 0" stroke="#fff"/><path d="M-2.5 355.559c124.357-28.682 472.271-138.03 852.641-60.907 368.859 74.789 609.339 49.48 735.859 0 105.5-41.259 404-87.26 454 0" stroke="#fff"/><path d="M-2.5 375.559c124.357-28.682 472.271-138.03 852.641-60.907 368.859 74.789 609.339 49.48 735.859 0 105.5-41.259 404-87.26 454 0" stroke="#fff"/><path d="M-2.5 395.559c124.357-28.682 472.271-138.03 852.641-60.907 368.859 74.789 609.339 49.48 735.859 0 105.5-41.259 404-87.26 454 0" stroke="#fff"/><path d="M-2.5 415.559c124.357-28.682 472.271-138.03 852.641-60.907 368.859 74.789 609.339 49.48 735.859 0 105.5-41.259 404-87.26 454 0" stroke="#fff"/><path d="M-2.5 435.559c124.357-28.682 472.271-138.03 852.641-60.907 368.859 74.789 609.339 49.48 735.859 0 105.5-41.259 404-87.26 454 0" stroke="#fff"/><path d="M-2.5 455.559c124.357-28.682 472.271-138.03 852.641-60.907 368.859 74.789 609.339 49.48 735.859 0 105.5-41.259 404-87.26 454 0" stroke="#fff"/><path d="M-2.5 476.559c124.357-28.682 472.271-138.03 852.641-60.907 368.859 74.789 609.339 49.48 735.859 0 105.5-41.259 404-87.26 454 0" stroke="#fff"/><path d="M-2.5 496.559c124.357-28.682 472.271-138.03 852.641-60.907 368.859 74.789 609.339 49.48 735.859 0 105.5-41.259 404-87.26 454 0" stroke="#fff"/><path d="M-2.5 516.559c124.357-28.682 472.271-138.03 852.641-60.907 368.859 74.789 609.339 49.48 735.859 0 105.5-41.259 404-87.26 454 0" stroke="#fff"/><path d="M-2.5 536.559c124.357-28.682 472.271-138.03 852.641-60.907 368.859 74.789 609.339 49.48 735.859 0 105.5-41.259 404-87.26 454 0" stroke="#fff"/><path d="M-2.5 556.559c124.357-28.682 472.271-138.03 852.641-60.907 368.859 74.789 609.339 49.48 735.859 0 105.5-41.259 404-87.26 454 0" stroke="#fff"/><path d="M-2.5 576.559c124.357-28.682 472.271-138.03 852.641-60.907 368.859 74.789 609.339 49.48 735.859 0 105.5-41.259 404-87.26 454 0" stroke="#fff"/></svg>