<svg width="52" height="57" fill="none" xmlns="http://www.w3.org/2000/svg"><path d="M39.448.554h-.012c-1.995 0-4.97 1.2-7.596 2.257-2.42.976-4.51 1.818-5.984 1.824h-.017c-1.474-.006-3.564-.848-5.984-1.824-2.631-1.06-5.607-2.258-7.608-2.257C7.794.565 4.451 2.19 2.311 5.38-.32 9.302-.751 15.496 1.263 20.443c1.865 4.58 2.313 8.16 2.788 11.949.54 4.298 1.15 9.17 4.022 16.636 2.213 5.754 6.227 7.289 8.25 7.289 1.3 0 2.216-.786 2.757-1.445 1.466-1.788 1.97-4.707 1.35-7.808-1.721-8.61-.226-12.682 1.332-14.582 1.06-1.293 2.51-2.005 4.082-2.005h.008c1.572 0 3.021.712 4.081 2.005 1.558 1.9 3.054 5.973 1.332 14.582-.62 3.101-.115 6.02 1.35 7.808.541.66 1.458 1.445 2.757 1.445 2.023 0 6.038-1.535 8.25-7.288 2.872-7.467 3.483-12.339 4.022-16.637.475-3.79.924-7.37 2.788-11.95 2.014-4.946 1.583-11.14-1.047-15.062C47.244 2.19 43.9.565 39.448.554zM4.083 14.15c-.01-3.55.805-6.17 2.42-7.789 1.133-1.135 2.647-1.735 4.38-1.735a1.36 1.36 0 0 1 0 2.72c-1.023 0-1.826.306-2.454.936-1.071 1.074-1.633 3.1-1.626 5.86a1.36 1.36 0 0 1-1.357 1.364h-.003a1.36 1.36 0 0 1-1.36-1.357zm10.051 35.25a1.36 1.36 0 0 1-1.783-.722c-3.004-7.08-3.825-12.452-4.55-17.192-.523-3.42-1.017-6.65-2.274-10.07a1.36 1.36 0 1 1 2.553-.94c1.352 3.678 1.866 7.04 2.41 10.6.735 4.804 1.494 9.773 4.365 16.54a1.36 1.36 0 0 1-.72 1.783z" fill="#FF4E4E"/><path d="M39.448.554h-.012c-1.995 0-4.97 1.2-7.596 2.257-2.42.976-4.51 1.818-5.984 1.824h-.017c-1.474-.006-3.564-.848-5.984-1.824-2.631-1.06-5.607-2.258-7.608-2.257C7.794.565 4.451 2.19 2.311 5.38-.32 9.302-.751 15.496 1.263 20.443c1.865 4.58 2.313 8.16 2.788 11.949.54 4.298 1.15 9.17 4.022 16.636 2.213 5.754 6.227 7.289 8.25 7.289 1.3 0 2.216-.786 2.757-1.445 1.466-1.788 1.97-4.707 1.35-7.808-1.721-8.61-.226-12.682 1.332-14.582 1.06-1.293 2.51-2.005 4.082-2.005h.008c1.572 0 3.021.712 4.081 2.005 1.558 1.9 3.054 5.973 1.332 14.582-.62 3.101-.115 6.02 1.35 7.808.541.66 1.458 1.445 2.757 1.445 2.023 0 6.038-1.535 8.25-7.288 2.872-7.467 3.483-12.339 4.022-16.637.475-3.79.924-7.37 2.788-11.95 2.014-4.946 1.583-11.14-1.047-15.062C47.244 2.19 43.9.565 39.448.554zM4.083 14.15c-.01-3.55.805-6.17 2.42-7.789 1.133-1.135 2.647-1.735 4.38-1.735a1.36 1.36 0 0 1 0 2.72c-1.023 0-1.826.306-2.454.936-1.071 1.074-1.633 3.1-1.626 5.86a1.36 1.36 0 0 1-1.357 1.364h-.003a1.36 1.36 0 0 1-1.36-1.357zm10.051 35.25a1.36 1.36 0 0 1-1.783-.722c-3.004-7.08-3.825-12.452-4.55-17.192-.523-3.42-1.017-6.65-2.274-10.07a1.36 1.36 0 1 1 2.553-.94c1.352 3.678 1.866 7.04 2.41 10.6.735 4.804 1.494 9.773 4.365 16.54a1.36 1.36 0 0 1-.72 1.783z" fill="url(#a)"/><path d="M39.448.554h-.012c-1.995 0-4.97 1.2-7.596 2.257-2.42.976-4.51 1.818-5.984 1.824h-.017c-1.474-.006-3.564-.848-5.984-1.824-2.631-1.06-5.607-2.258-7.608-2.257C7.794.565 4.451 2.19 2.311 5.38-.32 9.302-.751 15.496 1.263 20.443c1.865 4.58 2.313 8.16 2.788 11.949.54 4.298 1.15 9.17 4.022 16.636 2.213 5.754 6.227 7.289 8.25 7.289 1.3 0 2.216-.786 2.757-1.445 1.466-1.788 1.97-4.707 1.35-7.808-1.721-8.61-.226-12.682 1.332-14.582 1.06-1.293 2.51-2.005 4.082-2.005h.008c1.572 0 3.021.712 4.081 2.005 1.558 1.9 3.054 5.973 1.332 14.582-.62 3.101-.115 6.02 1.35 7.808.541.66 1.458 1.445 2.757 1.445 2.023 0 6.038-1.535 8.25-7.288 2.872-7.467 3.483-12.339 4.022-16.637.475-3.79.924-7.37 2.788-11.95 2.014-4.946 1.583-11.14-1.047-15.062C47.244 2.19 43.9.565 39.448.554zM4.083 14.15c-.01-3.55.805-6.17 2.42-7.789 1.133-1.135 2.647-1.735 4.38-1.735a1.36 1.36 0 0 1 0 2.72c-1.023 0-1.826.306-2.454.936-1.071 1.074-1.633 3.1-1.626 5.86a1.36 1.36 0 0 1-1.357 1.364h-.003a1.36 1.36 0 0 1-1.36-1.357zm10.051 35.25a1.36 1.36 0 0 1-1.783-.722c-3.004-7.08-3.825-12.452-4.55-17.192-.523-3.42-1.017-6.65-2.274-10.07a1.36 1.36 0 1 1 2.553-.94c1.352 3.678 1.866 7.04 2.41 10.6.735 4.804 1.494 9.773 4.365 16.54a1.36 1.36 0 0 1-.72 1.783z" fill="url(#b)"/><defs><linearGradient id="a" x1="25.848" y1=".554" x2="25.848" y2="56.317" gradientUnits="userSpaceOnUse"><stop stop-color="#B4C4FF"/><stop offset="1" stop-color="#FF889D"/></linearGradient><linearGradient id="b" x1="25.848" y1=".554" x2="25.848" y2="56.317" gradientUnits="userSpaceOnUse"><stop stop-color="#B4C4FF"/><stop offset="1" stop-color="#FFDBE1"/></linearGradient></defs></svg>