<svg width="53" height="53" fill="none" xmlns="http://www.w3.org/2000/svg"><g clip-path="url(#a)"><path d="M46.791 2.21C43.9-.684 38.75-.684 35.86 2.21a7.603 7.603 0 0 0-2.244 5.414c0 2.046.798 4.043 2.244 5.488.067.067.133.137.197.208-.648.53-1.122 1.243-1.409 2.035h-1.829a4.6 4.6 0 0 0-4.594 4.595v10.854c-.505-.063-1.007-.133-1.532-.133-.524 0-1.027.07-1.531.133V19.95a4.6 4.6 0 0 0-4.595-4.595h-1.829c-.286-.792-.76-1.505-1.409-2.035.064-.07.13-.14.197-.208 1.447-1.445 2.244-3.442 2.244-5.488 0-2.046-.797-3.97-2.242-5.415-2.893-2.892-8.043-2.892-10.932 0-8.053 8.053-8.053 21.229-.002 29.282a7.609 7.609 0 0 0 5.416 2.243c2.046 0 4.072-.797 5.516-2.244a7.603 7.603 0 0 0 2.244-5.414c0-2.046-.797-3.97-2.244-5.414a6.46 6.46 0 0 1-.197-.208c.649-.53 1.122-1.243 1.409-2.035h1.829c.845 0 1.532.686 1.532 1.531v11.642c-3.61 1.481-6.127 4.616-6.127 8.268 0 3.559 2.419 6.768 6.127 8.273v2.652a1.53 1.53 0 0 0 1.531 1.532h6.126a1.53 1.53 0 0 0 1.532-1.532v-2.652c3.708-1.505 6.126-4.715 6.126-8.273 0-3.652-2.517-6.787-6.126-8.268V19.95c0-.845.686-1.531 1.531-1.531h1.83c.286.792.76 1.505 1.408 2.035-.064.07-.13.14-.197.208a7.603 7.603 0 0 0-2.244 5.414c0 2.046.798 3.97 2.242 5.415 1.447 1.446 3.473 2.243 5.519 2.243 2.046 0 3.969-.797 5.414-2.244 8.052-8.052 8.052-21.228.001-29.28z" fill="#FF4E4E"/><path d="M46.791 2.21C43.9-.684 38.75-.684 35.86 2.21a7.603 7.603 0 0 0-2.244 5.414c0 2.046.798 4.043 2.244 5.488.067.067.133.137.197.208-.648.53-1.122 1.243-1.409 2.035h-1.829a4.6 4.6 0 0 0-4.594 4.595v10.854c-.505-.063-1.007-.133-1.532-.133-.524 0-1.027.07-1.531.133V19.95a4.6 4.6 0 0 0-4.595-4.595h-1.829c-.286-.792-.76-1.505-1.409-2.035.064-.07.13-.14.197-.208 1.447-1.445 2.244-3.442 2.244-5.488 0-2.046-.797-3.97-2.242-5.415-2.893-2.892-8.043-2.892-10.932 0-8.053 8.053-8.053 21.229-.002 29.282a7.609 7.609 0 0 0 5.416 2.243c2.046 0 4.072-.797 5.516-2.244a7.603 7.603 0 0 0 2.244-5.414c0-2.046-.797-3.97-2.244-5.414a6.46 6.46 0 0 1-.197-.208c.649-.53 1.122-1.243 1.409-2.035h1.829c.845 0 1.532.686 1.532 1.531v11.642c-3.61 1.481-6.127 4.616-6.127 8.268 0 3.559 2.419 6.768 6.127 8.273v2.652a1.53 1.53 0 0 0 1.531 1.532h6.126a1.53 1.53 0 0 0 1.532-1.532v-2.652c3.708-1.505 6.126-4.715 6.126-8.273 0-3.652-2.517-6.787-6.126-8.268V19.95c0-.845.686-1.531 1.531-1.531h1.83c.286.792.76 1.505 1.408 2.035-.064.07-.13.14-.197.208a7.603 7.603 0 0 0-2.244 5.414c0 2.046.798 3.97 2.242 5.415 1.447 1.446 3.473 2.243 5.519 2.243 2.046 0 3.969-.797 5.414-2.244 8.052-8.052 8.052-21.228.001-29.28z" fill="url(#b)"/><path d="M46.791 2.21C43.9-.684 38.75-.684 35.86 2.21a7.603 7.603 0 0 0-2.244 5.414c0 2.046.798 4.043 2.244 5.488.067.067.133.137.197.208-.648.53-1.122 1.243-1.409 2.035h-1.829a4.6 4.6 0 0 0-4.594 4.595v10.854c-.505-.063-1.007-.133-1.532-.133-.524 0-1.027.07-1.531.133V19.95a4.6 4.6 0 0 0-4.595-4.595h-1.829c-.286-.792-.76-1.505-1.409-2.035.064-.07.13-.14.197-.208 1.447-1.445 2.244-3.442 2.244-5.488 0-2.046-.797-3.97-2.242-5.415-2.893-2.892-8.043-2.892-10.932 0-8.053 8.053-8.053 21.229-.002 29.282a7.609 7.609 0 0 0 5.416 2.243c2.046 0 4.072-.797 5.516-2.244a7.603 7.603 0 0 0 2.244-5.414c0-2.046-.797-3.97-2.244-5.414a6.46 6.46 0 0 1-.197-.208c.649-.53 1.122-1.243 1.409-2.035h1.829c.845 0 1.532.686 1.532 1.531v11.642c-3.61 1.481-6.127 4.616-6.127 8.268 0 3.559 2.419 6.768 6.127 8.273v2.652a1.53 1.53 0 0 0 1.531 1.532h6.126a1.53 1.53 0 0 0 1.532-1.532v-2.652c3.708-1.505 6.126-4.715 6.126-8.273 0-3.652-2.517-6.787-6.126-8.268V19.95c0-.845.686-1.531 1.531-1.531h1.83c.286.792.76 1.505 1.408 2.035-.064.07-.13.14-.197.208a7.603 7.603 0 0 0-2.244 5.414c0 2.046.798 3.97 2.242 5.415 1.447 1.446 3.473 2.243 5.519 2.243 2.046 0 3.969-.797 5.414-2.244 8.052-8.052 8.052-21.228.001-29.28z" fill="url(#c)"/></g><defs><linearGradient id="b" x1="26.692" y1=".04" x2="26.692" y2="52.317" gradientUnits="userSpaceOnUse"><stop stop-color="#B4C4FF"/><stop offset="1" stop-color="#FF889D"/></linearGradient><linearGradient id="c" x1="26.692" y1=".04" x2="26.692" y2="52.317" gradientUnits="userSpaceOnUse"><stop stop-color="#B4C4FF"/><stop offset="1" stop-color="#FFDBE1"/></linearGradient><clipPath id="a"><path fill="#fff" transform="translate(.554 .04)" d="M0 0h52.277v52.277H0z"/></clipPath></defs></svg>