<svg width="57" height="57" fill="none" xmlns="http://www.w3.org/2000/svg"><g clip-path="url(#a)"><path d="M28.436 10.669c-5.85 0-10.611 4.76-10.611 10.611 0 5.851 4.76 10.612 10.611 10.612 5.852 0 10.612-4.76 10.612-10.612 0-5.85-4.76-10.611-10.612-10.611zm6.115 12.245h-12.23v-3.267h12.23v3.267z" fill="#FF4E4E"/><path d="M28.436 10.669c-5.85 0-10.611 4.76-10.611 10.611 0 5.851 4.76 10.612 10.611 10.612 5.852 0 10.612-4.76 10.612-10.612 0-5.85-4.76-10.611-10.612-10.611zm6.115 12.245h-12.23v-3.267h12.23v3.267z" fill="url(#b)"/><path d="M28.436 10.669c-5.85 0-10.611 4.76-10.611 10.611 0 5.851 4.76 10.612 10.611 10.612 5.852 0 10.612-4.76 10.612-10.612 0-5.85-4.76-10.611-10.612-10.611zm6.115 12.245h-12.23v-3.267h12.23v3.267z" fill="url(#c)"/><path d="M53.574 39.572a33.731 33.731 0 0 0-3.76-14.816l-.748-1.442A32.626 32.626 0 0 1 46.258.812H10.615a32.626 32.626 0 0 1-2.808 22.502l-.748 1.442a33.73 33.73 0 0 0-3.76 14.816A33.73 33.73 0 0 0 6.5 54.52l.97 2.056h19.332v-9.027l-9.141-6.252 1.844-2.697 8.93 6.108 8.93-6.108 1.845 2.697-9.14 6.252v9.026h19.332l.97-2.055a33.73 33.73 0 0 0 3.201-14.947zM28.437 35.16c-7.653 0-13.88-6.226-13.88-13.879 0-7.652 6.227-13.878 13.88-13.878 7.652 0 13.878 6.226 13.878 13.878 0 7.653-6.226 13.879-13.878 13.879z" fill="#FF4E4E"/><path d="M53.574 39.572a33.731 33.731 0 0 0-3.76-14.816l-.748-1.442A32.626 32.626 0 0 1 46.258.812H10.615a32.626 32.626 0 0 1-2.808 22.502l-.748 1.442a33.73 33.73 0 0 0-3.76 14.816A33.73 33.73 0 0 0 6.5 54.52l.97 2.056h19.332v-9.027l-9.141-6.252 1.844-2.697 8.93 6.108 8.93-6.108 1.845 2.697-9.14 6.252v9.026h19.332l.97-2.055a33.73 33.73 0 0 0 3.201-14.947zM28.437 35.16c-7.653 0-13.88-6.226-13.88-13.879 0-7.652 6.227-13.878 13.88-13.878 7.652 0 13.878 6.226 13.878 13.878 0 7.653-6.226 13.879-13.878 13.879z" fill="url(#d)"/><path d="M53.574 39.572a33.731 33.731 0 0 0-3.76-14.816l-.748-1.442A32.626 32.626 0 0 1 46.258.812H10.615a32.626 32.626 0 0 1-2.808 22.502l-.748 1.442a33.73 33.73 0 0 0-3.76 14.816A33.73 33.73 0 0 0 6.5 54.52l.97 2.056h19.332v-9.027l-9.141-6.252 1.844-2.697 8.93 6.108 8.93-6.108 1.845 2.697-9.14 6.252v9.026h19.332l.97-2.055a33.73 33.73 0 0 0 3.201-14.947zM28.437 35.16c-7.653 0-13.88-6.226-13.88-13.879 0-7.652 6.227-13.878 13.88-13.878 7.652 0 13.878 6.226 13.878 13.878 0 7.653-6.226 13.879-13.878 13.879z" fill="url(#e)"/></g><defs><linearGradient id="b" x1="28.436" y1="10.669" x2="28.436" y2="31.892" gradientUnits="userSpaceOnUse"><stop stop-color="#B4C4FF"/><stop offset="1" stop-color="#FF889D"/></linearGradient><linearGradient id="c" x1="28.436" y1="10.669" x2="28.436" y2="31.892" gradientUnits="userSpaceOnUse"><stop stop-color="#B4C4FF"/><stop offset="1" stop-color="#FFDBE1"/></linearGradient><linearGradient id="d" x1="28.436" y1=".812" x2="28.436" y2="56.575" gradientUnits="userSpaceOnUse"><stop stop-color="#B4C4FF"/><stop offset="1" stop-color="#FF889D"/></linearGradient><linearGradient id="e" x1="28.436" y1=".812" x2="28.436" y2="56.575" gradientUnits="userSpaceOnUse"><stop stop-color="#B4C4FF"/><stop offset="1" stop-color="#FFDBE1"/></linearGradient><clipPath id="a"><path fill="#fff" transform="translate(.555 .812)" d="M0 0h55.762v55.762H0z"/></clipPath></defs></svg>