<svg width="59" height="59" fill="none" xmlns="http://www.w3.org/2000/svg"><path d="M26.939 11.806c-.644.476-1.31.871-1.987 1.219a13.574 13.574 0 0 1 4.742 4.952 13.576 13.576 0 0 1 4.744-4.953 14.21 14.21 0 0 1-1.988-1.22c-1.35-.997-4.162-.998-5.512.002z" fill="#FF4E4E"/><path d="M26.939 11.806c-.644.476-1.31.871-1.987 1.219a13.574 13.574 0 0 1 4.742 4.952 13.576 13.576 0 0 1 4.744-4.953 14.21 14.21 0 0 1-1.988-1.22c-1.35-.997-4.162-.998-5.512.002z" fill="url(#a)"/><path d="M53.392.911a5.06 5.06 0 0 0-5.054 5.054v3.37c0 .381-.263.716-.477 1C46.18 4.894 38.805.91 29.694.91c-9.411 0-16.487 3.984-18.167 9.423-.215-.282-.477-.618-.477-1V5.966A5.06 5.06 0 0 0 5.996.911 5.06 5.06 0 0 0 .94 5.965v20.217c0 6.153 4.756 11.164 10.776 11.69a5.057 5.057 0 0 0 6.071-4.952 5.06 5.06 0 0 0-5.054-5.054 5.057 5.057 0 0 0-5.05 5.015c-2.036-1.54-3.373-3.957-3.373-6.7V5.966a1.686 1.686 0 0 1 3.37 0v3.37c0 2.238 1.584 4.119 3.604 4.781.567 3.353 3.062 7.04 6.677 9.731 2.277 1.696 3.573 4.378 3.384 6.999-.05.678-.076 1.37-.076 2.074 0 4.951 1.25 9.472 3.37 12.269v13.227h10.108V45.189c2.119-2.797 3.37-7.318 3.37-12.269 0-.704-.027-1.396-.076-2.074-.19-2.621 1.107-5.303 3.384-6.999 3.615-2.692 6.11-6.378 6.677-9.73 2.02-.663 3.604-2.544 3.604-4.782v-3.37a1.686 1.686 0 0 1 3.37 0v20.217c0 2.742-1.338 5.16-3.374 6.699a5.057 5.057 0 0 0-5.05-5.015A5.06 5.06 0 0 0 41.6 32.92a5.06 5.06 0 0 0 6.072 4.952c6.02-.526 10.775-5.537 10.775-11.69V5.965A5.06 5.06 0 0 0 53.392.911zM41.487 14.389c-5.574 0-10.109 4.534-10.109 10.108v8.423H28.01v-8.423c0-5.574-4.534-10.108-10.108-10.108v-3.37h1.698c1.791 0 3.636-.664 5.335-1.923 2.524-1.866 6.996-1.864 9.52-.002 1.699 1.26 3.543 1.925 5.335 1.925h1.698v3.37z" fill="#FF4E4E"/><path d="M53.392.911a5.06 5.06 0 0 0-5.054 5.054v3.37c0 .381-.263.716-.477 1C46.18 4.894 38.805.91 29.694.91c-9.411 0-16.487 3.984-18.167 9.423-.215-.282-.477-.618-.477-1V5.966A5.06 5.06 0 0 0 5.996.911 5.06 5.06 0 0 0 .94 5.965v20.217c0 6.153 4.756 11.164 10.776 11.69a5.057 5.057 0 0 0 6.071-4.952 5.06 5.06 0 0 0-5.054-5.054 5.057 5.057 0 0 0-5.05 5.015c-2.036-1.54-3.373-3.957-3.373-6.7V5.966a1.686 1.686 0 0 1 3.37 0v3.37c0 2.238 1.584 4.119 3.604 4.781.567 3.353 3.062 7.04 6.677 9.731 2.277 1.696 3.573 4.378 3.384 6.999-.05.678-.076 1.37-.076 2.074 0 4.951 1.25 9.472 3.37 12.269v13.227h10.108V45.189c2.119-2.797 3.37-7.318 3.37-12.269 0-.704-.027-1.396-.076-2.074-.19-2.621 1.107-5.303 3.384-6.999 3.615-2.692 6.11-6.378 6.677-9.73 2.02-.663 3.604-2.544 3.604-4.782v-3.37a1.686 1.686 0 0 1 3.37 0v20.217c0 2.742-1.338 5.16-3.374 6.699a5.057 5.057 0 0 0-5.05-5.015A5.06 5.06 0 0 0 41.6 32.92a5.06 5.06 0 0 0 6.072 4.952c6.02-.526 10.775-5.537 10.775-11.69V5.965A5.06 5.06 0 0 0 53.392.911zM41.487 14.389c-5.574 0-10.109 4.534-10.109 10.108v8.423H28.01v-8.423c0-5.574-4.534-10.108-10.108-10.108v-3.37h1.698c1.791 0 3.636-.664 5.335-1.923 2.524-1.866 6.996-1.864 9.52-.002 1.699 1.26 3.543 1.925 5.335 1.925h1.698v3.37z" fill="url(#b)"/><defs><linearGradient id="a" x1="29.695" y1="11.056" x2="29.695" y2="17.977" gradientUnits="userSpaceOnUse"><stop stop-color="#B4C4FF"/><stop offset="1" stop-color="#FFDBE1"/></linearGradient><linearGradient id="b" x1="29.694" y1=".911" x2="29.694" y2="58.416" gradientUnits="userSpaceOnUse"><stop stop-color="#B4C4FF"/><stop offset="1" stop-color="#FFDBE1"/></linearGradient></defs></svg>