<svg width="54" height="54" fill="none" xmlns="http://www.w3.org/2000/svg"><path d="M16.044 16.188H2.975a2.179 2.179 0 0 1 0-4.356h13.07a2.179 2.179 0 0 1 0 4.356z" fill="#000"/><path d="M16.044 16.188H2.975a2.179 2.179 0 0 1 0-4.356h13.07a2.179 2.179 0 0 1 0 4.356z" fill="#FF4E4E"/><path d="M16.044 16.188H2.975a2.179 2.179 0 0 1 0-4.356h13.07a2.179 2.179 0 0 1 0 4.356z" fill="url(#a)"/><path d="M16.044 16.188H2.975a2.179 2.179 0 0 1 0-4.356h13.07a2.179 2.179 0 0 1 0 4.356z" fill="url(#b)"/><path d="M50.896 16.188h-13.07a2.179 2.179 0 0 1 0-4.356h13.07a2.179 2.179 0 0 1 0 4.356z" fill="#000"/><path d="M50.896 16.188h-13.07a2.179 2.179 0 0 1 0-4.356h13.07a2.179 2.179 0 0 1 0 4.356z" fill="#FF4E4E"/><path d="M50.896 16.188h-13.07a2.179 2.179 0 0 1 0-4.356h13.07a2.179 2.179 0 0 1 0 4.356z" fill="url(#c)"/><path d="M50.896 16.188h-13.07a2.179 2.179 0 0 1 0-4.356h13.07a2.179 2.179 0 0 1 0 4.356z" fill="url(#d)"/><path d="M24.692 37.97c-3.527 0-6.428-2.96-6.47-6.602-.108-9.987 5.657-21.762 14.69-30a1.635 1.635 0 0 1 2.577 1.906c-4.095 8.675-5.91 19.394-4.515 26.672.394 2.065-.127 4.151-1.43 5.726a6.285 6.285 0 0 1-4.852 2.298z" fill="#000"/><path d="M24.692 37.97c-3.527 0-6.428-2.96-6.47-6.602-.108-9.987 5.657-21.762 14.69-30a1.635 1.635 0 0 1 2.577 1.906c-4.095 8.675-5.91 19.394-4.515 26.672.394 2.065-.127 4.151-1.43 5.726a6.285 6.285 0 0 1-4.852 2.298z" fill="#FF4E4E"/><path d="M24.692 37.97c-3.527 0-6.428-2.96-6.47-6.602-.108-9.987 5.657-21.762 14.69-30a1.635 1.635 0 0 1 2.577 1.906c-4.095 8.675-5.91 19.394-4.515 26.672.394 2.065-.127 4.151-1.43 5.726a6.285 6.285 0 0 1-4.852 2.298z" fill="url(#e)"/><path d="M24.692 37.97c-3.527 0-6.428-2.96-6.47-6.602-.108-9.987 5.657-21.762 14.69-30a1.635 1.635 0 0 1 2.577 1.906c-4.095 8.675-5.91 19.394-4.515 26.672.394 2.065-.127 4.151-1.43 5.726a6.285 6.285 0 0 1-4.852 2.298z" fill="url(#f)"/><path d="m52.18 24.792-4.094-2.986a7.699 7.699 0 0 0-4.189-1.261c-2.988 0-5.633 1.688-7.327 3.106a6.206 6.206 0 0 0-2.224 4.779v3.646c0 2.433-.978 4.731-2.74 6.459a9.714 9.714 0 0 1-6.337 2.694c-2.568.12-5.02-.843-6.911-2.67-1.93-1.867-3.026-4.446-3.006-7.075l.037-4.548c.017-2.25-1.166-4.25-3.163-5.352-2.026-1.113-4.49-1.033-6.541.29L1.69 24.791a2.174 2.174 0 0 0-.893 1.758v22.311a4.36 4.36 0 0 0 4.356 4.357h43.565a4.36 4.36 0 0 0 4.356-4.357V26.55c0-.695-.331-1.348-.893-1.758zM7.333 31.436a2.179 2.179 0 1 1-.002 4.358 2.179 2.179 0 0 1 .002-4.358zm.544 15.247a2.179 2.179 0 1 1 .002-4.358 2.179 2.179 0 0 1-.002 4.358zm10.347 2.178a2.179 2.179 0 1 1 .001-4.358 2.179 2.179 0 0 1-.001 4.358zm19.604-2.178a2.179 2.179 0 1 1 .001-4.358 2.179 2.179 0 0 1-.002 4.358zm6.534-13.07a2.179 2.179 0 1 1 .002-4.357 2.179 2.179 0 0 1-.002 4.358zm4.357 8.714a2.179 2.179 0 1 1 .001-4.358 2.179 2.179 0 0 1-.002 4.358z" fill="#000"/><path d="m52.18 24.792-4.094-2.986a7.699 7.699 0 0 0-4.189-1.261c-2.988 0-5.633 1.688-7.327 3.106a6.206 6.206 0 0 0-2.224 4.779v3.646c0 2.433-.978 4.731-2.74 6.459a9.714 9.714 0 0 1-6.337 2.694c-2.568.12-5.02-.843-6.911-2.67-1.93-1.867-3.026-4.446-3.006-7.075l.037-4.548c.017-2.25-1.166-4.25-3.163-5.352-2.026-1.113-4.49-1.033-6.541.29L1.69 24.791a2.174 2.174 0 0 0-.893 1.758v22.311a4.36 4.36 0 0 0 4.356 4.357h43.565a4.36 4.36 0 0 0 4.356-4.357V26.55c0-.695-.331-1.348-.893-1.758zM7.333 31.436a2.179 2.179 0 1 1-.002 4.358 2.179 2.179 0 0 1 .002-4.358zm.544 15.247a2.179 2.179 0 1 1 .002-4.358 2.179 2.179 0 0 1-.002 4.358zm10.347 2.178a2.179 2.179 0 1 1 .001-4.358 2.179 2.179 0 0 1-.001 4.358zm19.604-2.178a2.179 2.179 0 1 1 .001-4.358 2.179 2.179 0 0 1-.002 4.358zm6.534-13.07a2.179 2.179 0 1 1 .002-4.357 2.179 2.179 0 0 1-.002 4.358zm4.357 8.714a2.179 2.179 0 1 1 .001-4.358 2.179 2.179 0 0 1-.002 4.358z" fill="#FF4E4E"/><path d="m52.18 24.792-4.094-2.986a7.699 7.699 0 0 0-4.189-1.261c-2.988 0-5.633 1.688-7.327 3.106a6.206 6.206 0 0 0-2.224 4.779v3.646c0 2.433-.978 4.731-2.74 6.459a9.714 9.714 0 0 1-6.337 2.694c-2.568.12-5.02-.843-6.911-2.67-1.93-1.867-3.026-4.446-3.006-7.075l.037-4.548c.017-2.25-1.166-4.25-3.163-5.352-2.026-1.113-4.49-1.033-6.541.29L1.69 24.791a2.174 2.174 0 0 0-.893 1.758v22.311a4.36 4.36 0 0 0 4.356 4.357h43.565a4.36 4.36 0 0 0 4.356-4.357V26.55c0-.695-.331-1.348-.893-1.758zM7.333 31.436a2.179 2.179 0 1 1-.002 4.358 2.179 2.179 0 0 1 .002-4.358zm.544 15.247a2.179 2.179 0 1 1 .002-4.358 2.179 2.179 0 0 1-.002 4.358zm10.347 2.178a2.179 2.179 0 1 1 .001-4.358 2.179 2.179 0 0 1-.001 4.358zm19.604-2.178a2.179 2.179 0 1 1 .001-4.358 2.179 2.179 0 0 1-.002 4.358zm6.534-13.07a2.179 2.179 0 1 1 .002-4.357 2.179 2.179 0 0 1-.002 4.358zm4.357 8.714a2.179 2.179 0 1 1 .001-4.358 2.179 2.179 0 0 1-.002 4.358z" fill="url(#g)"/><path d="m52.18 24.792-4.094-2.986a7.699 7.699 0 0 0-4.189-1.261c-2.988 0-5.633 1.688-7.327 3.106a6.206 6.206 0 0 0-2.224 4.779v3.646c0 2.433-.978 4.731-2.74 6.459a9.714 9.714 0 0 1-6.337 2.694c-2.568.12-5.02-.843-6.911-2.67-1.93-1.867-3.026-4.446-3.006-7.075l.037-4.548c.017-2.25-1.166-4.25-3.163-5.352-2.026-1.113-4.49-1.033-6.541.29L1.69 24.791a2.174 2.174 0 0 0-.893 1.758v22.311a4.36 4.36 0 0 0 4.356 4.357h43.565a4.36 4.36 0 0 0 4.356-4.357V26.55c0-.695-.331-1.348-.893-1.758zM7.333 31.436a2.179 2.179 0 1 1-.002 4.358 2.179 2.179 0 0 1 .002-4.358zm.544 15.247a2.179 2.179 0 1 1 .002-4.358 2.179 2.179 0 0 1-.002 4.358zm10.347 2.178a2.179 2.179 0 1 1 .001-4.358 2.179 2.179 0 0 1-.001 4.358zm19.604-2.178a2.179 2.179 0 1 1 .001-4.358 2.179 2.179 0 0 1-.002 4.358zm6.534-13.07a2.179 2.179 0 1 1 .002-4.357 2.179 2.179 0 0 1-.002 4.358zm4.357 8.714a2.179 2.179 0 1 1 .001-4.358 2.179 2.179 0 0 1-.002 4.358z" fill="url(#h)"/><defs><linearGradient id="a" x1="9.51" y1="11.832" x2="9.51" y2="16.188" gradientUnits="userSpaceOnUse"><stop stop-color="#B4C4FF"/><stop offset="1" stop-color="#FF889D"/></linearGradient><linearGradient id="b" x1="9.51" y1="11.832" x2="9.51" y2="16.188" gradientUnits="userSpaceOnUse"><stop stop-color="#B4C4FF"/><stop offset="1" stop-color="#FFDBE1"/></linearGradient><linearGradient id="c" x1="44.361" y1="11.832" x2="44.361" y2="16.188" gradientUnits="userSpaceOnUse"><stop stop-color="#B4C4FF"/><stop offset="1" stop-color="#FF889D"/></linearGradient><linearGradient id="d" x1="44.361" y1="11.832" x2="44.361" y2="16.188" gradientUnits="userSpaceOnUse"><stop stop-color="#B4C4FF"/><stop offset="1" stop-color="#FFDBE1"/></linearGradient><linearGradient id="e" x1="26.933" y1=".941" x2="26.933" y2="37.97" gradientUnits="userSpaceOnUse"><stop stop-color="#B4C4FF"/><stop offset="1" stop-color="#FF889D"/></linearGradient><linearGradient id="f" x1="26.933" y1=".941" x2="26.933" y2="37.97" gradientUnits="userSpaceOnUse"><stop stop-color="#B4C4FF"/><stop offset="1" stop-color="#FFDBE1"/></linearGradient><linearGradient id="g" x1="26.935" y1="20.545" x2="26.935" y2="53.218" gradientUnits="userSpaceOnUse"><stop stop-color="#B4C4FF"/><stop offset="1" stop-color="#FF889D"/></linearGradient><linearGradient id="h" x1="26.935" y1="20.545" x2="26.935" y2="53.218" gradientUnits="userSpaceOnUse"><stop stop-color="#B4C4FF"/><stop offset="1" stop-color="#FFDBE1"/></linearGradient></defs></svg>