<svg width="106" height="116" fill="none" xmlns="http://www.w3.org/2000/svg"><path d="M57.935 115.507c-16.618 0-30.396-5.47-41.334-16.408C5.663 88.056.193 74.435.193 58.24c0-16.198 5.47-29.766 16.408-40.704C27.539 6.492 41.317.97 57.935.97c9.992 0 19.195 2.366 27.609 7.1 8.519 4.732 15.145 11.148 19.878 19.246l-15.776 9.15c-2.945-5.468-7.258-9.78-12.937-12.936-5.574-3.26-11.832-4.89-18.774-4.89-11.78 0-21.35 3.733-28.713 11.2-7.257 7.468-10.886 16.934-10.886 28.398 0 11.464 3.629 20.93 10.886 28.398 7.362 7.467 16.933 11.201 28.713 11.201 6.942 0 13.252-1.578 18.932-4.733 5.68-3.26 9.939-7.625 12.779-13.094l15.776 8.992c-4.628 8.099-11.201 14.567-19.72 19.405-8.415 4.733-17.67 7.1-27.767 7.1z" fill="#fff"/></svg>