<svg width="52" height="45" fill="none" xmlns="http://www.w3.org/2000/svg"><path d="M18.569 33.267h5.438l2.72-4.71c-.009-.013-2.713-4.697-2.72-4.71h-5.438l-2.72 4.71 2.72 4.71z" fill="#000"/><path d="M18.569 33.267h5.438l2.72-4.71c-.009-.013-2.713-4.697-2.72-4.71h-5.438l-2.72 4.71 2.72 4.71z" fill="url(#a)"/><path d="M18.569 33.267h5.438l2.72-4.71c-.009-.013-2.713-4.697-2.72-4.71h-5.438l-2.72 4.71 2.72 4.71z" fill="url(#b)"/><path d="M18.569 20.87h5.438l2.72-4.71-2.72-4.709h-5.438l-2.72 4.71 2.72 4.71z" fill="#000"/><path d="M18.569 20.87h5.438l2.72-4.71-2.72-4.709h-5.438l-2.72 4.71 2.72 4.71z" fill="url(#c)"/><path d="M18.569 20.87h5.438l2.72-4.71-2.72-4.709h-5.438l-2.72 4.71 2.72 4.71z" fill="url(#d)"/><path d="m34.778 27.062 2.72-4.71-2.72-4.71H29.34l-2.719 4.71 2.719 4.71h5.438z" fill="#000"/><path d="m34.778 27.062 2.72-4.71-2.72-4.71H29.34l-2.719 4.71 2.719 4.71h5.438z" fill="url(#e)"/><path d="m34.778 27.062 2.72-4.71-2.72-4.71H29.34l-2.719 4.71 2.719 4.71h5.438z" fill="url(#f)"/><path d="M13.942 7.21c11.333-9.187 28.72-2.366 31.069 11.78l-1.218-.984-1.88 2.326 5.11 4.13 4.13-5.11-2.326-1.88-.856 1.06C43.3-5.243 10.59-6.382 4.276 17.026l2.905.712A19.434 19.434 0 0 1 13.942 7.21z" fill="#000"/><path d="M13.942 7.21c11.333-9.187 28.72-2.366 31.069 11.78l-1.218-.984-1.88 2.326 5.11 4.13 4.13-5.11-2.326-1.88-.856 1.06C43.3-5.243 10.59-6.382 4.276 17.026l2.905.712A19.434 19.434 0 0 1 13.942 7.21z" fill="url(#g)"/><path d="M13.942 7.21c11.333-9.187 28.72-2.366 31.069 11.78l-1.218-.984-1.88 2.326 5.11 4.13 4.13-5.11-2.326-1.88-.856 1.06C43.3-5.243 10.59-6.382 4.276 17.026l2.905.712A19.434 19.434 0 0 1 13.942 7.21z" fill="url(#h)"/><path d="M37.99 37.508c-11.333 9.187-28.72 2.366-31.07-11.78l1.219.984 1.88-2.326-5.111-4.13-4.13 5.11 2.326 1.88.857-1.06C8.63 49.961 41.34 51.1 47.656 27.692l-2.905-.712a19.435 19.435 0 0 1-6.762 10.528z" fill="#000"/><path d="M37.99 37.508c-11.333 9.187-28.72 2.366-31.07-11.78l1.219.984 1.88-2.326-5.111-4.13-4.13 5.11 2.326 1.88.857-1.06C8.63 49.961 41.34 51.1 47.656 27.692l-2.905-.712a19.435 19.435 0 0 1-6.762 10.528z" fill="url(#i)"/><path d="M37.99 37.508c-11.333 9.187-28.72 2.366-31.07-11.78l1.219.984 1.88-2.326-5.111-4.13-4.13 5.11 2.326 1.88.857-1.06C8.63 49.961 41.34 51.1 47.656 27.692l-2.905-.712a19.435 19.435 0 0 1-6.762 10.528z" fill="url(#j)"/><defs><linearGradient id="a" x1="21.288" y1="23.847" x2="21.288" y2="33.267" gradientUnits="userSpaceOnUse"><stop stop-color="#B4C4FF"/><stop offset="1" stop-color="#FF889D"/></linearGradient><linearGradient id="b" x1="21.288" y1="23.847" x2="21.288" y2="33.267" gradientUnits="userSpaceOnUse"><stop stop-color="#B4C4FF"/><stop offset="1" stop-color="#FFDBE1"/></linearGradient><linearGradient id="c" x1="21.288" y1="11.451" x2="21.288" y2="20.871" gradientUnits="userSpaceOnUse"><stop stop-color="#B4C4FF"/><stop offset="1" stop-color="#FF889D"/></linearGradient><linearGradient id="d" x1="21.288" y1="11.451" x2="21.288" y2="20.871" gradientUnits="userSpaceOnUse"><stop stop-color="#B4C4FF"/><stop offset="1" stop-color="#FFDBE1"/></linearGradient><linearGradient id="e" x1="32.059" y1="17.643" x2="32.059" y2="27.062" gradientUnits="userSpaceOnUse"><stop stop-color="#B4C4FF"/><stop offset="1" stop-color="#FF889D"/></linearGradient><linearGradient id="f" x1="32.059" y1="17.643" x2="32.059" y2="27.062" gradientUnits="userSpaceOnUse"><stop stop-color="#B4C4FF"/><stop offset="1" stop-color="#FFDBE1"/></linearGradient><linearGradient id="g" x1="27.715" y1=".072" x2="27.715" y2="24.462" gradientUnits="userSpaceOnUse"><stop stop-color="#B4C4FF"/><stop offset="1" stop-color="#FF889D"/></linearGradient><linearGradient id="h" x1="27.715" y1=".072" x2="27.715" y2="24.462" gradientUnits="userSpaceOnUse"><stop stop-color="#B4C4FF"/><stop offset="1" stop-color="#FFDBE1"/></linearGradient><linearGradient id="i" x1="24.217" y1="20.256" x2="24.217" y2="44.646" gradientUnits="userSpaceOnUse"><stop stop-color="#B4C4FF"/><stop offset="1" stop-color="#FF889D"/></linearGradient><linearGradient id="j" x1="24.217" y1="20.256" x2="24.217" y2="44.646" gradientUnits="userSpaceOnUse"><stop stop-color="#B4C4FF"/><stop offset="1" stop-color="#FFDBE1"/></linearGradient></defs></svg>