<svg width="45" height="46" fill="none" xmlns="http://www.w3.org/2000/svg"><path d="M43.939 19.303a21.352 21.352 0 0 1-8.47 3.421c-3.969.651-7.549 1.413-10.494 4.215-2.35 2.263-3.794 5.366-3.794 14.122a6.437 6.437 0 0 0 1.682 3.405 36.865 36.865 0 0 1 12.48-14.288.81.81 0 1 1 .92 1.334 35.721 35.721 0 0 0-11.907 13.566c8.073.476 15.13-2.763 18.678-10.447a20.932 20.932 0 0 0 .905-15.328z" fill="#000"/><path d="M43.939 19.303a21.352 21.352 0 0 1-8.47 3.421c-3.969.651-7.549 1.413-10.494 4.215-2.35 2.263-3.794 5.366-3.794 14.122a6.437 6.437 0 0 0 1.682 3.405 36.865 36.865 0 0 1 12.48-14.288.81.81 0 1 1 .92 1.334 35.721 35.721 0 0 0-11.907 13.566c8.073.476 15.13-2.763 18.678-10.447a20.932 20.932 0 0 0 .905-15.328z" fill="url(#a)"/><path d="M43.939 19.303a21.352 21.352 0 0 1-8.47 3.421c-3.969.651-7.549 1.413-10.494 4.215-2.35 2.263-3.794 5.366-3.794 14.122a6.437 6.437 0 0 0 1.682 3.405 36.865 36.865 0 0 1 12.48-14.288.81.81 0 1 1 .92 1.334 35.721 35.721 0 0 0-11.907 13.566c8.073.476 15.13-2.763 18.678-10.447a20.932 20.932 0 0 0 .905-15.328z" fill="url(#b)"/><path d="M8.79 22.177a18.701 18.701 0 0 1-7.375-2.89c-3.533 10.018 3.66 23.854 17.701 21.282A41.351 41.351 0 0 0 8.051 29.694a.794.794 0 0 1 .889-1.286 43.66 43.66 0 0 1 10.7 10.16 26.987 26.987 0 0 1 1.302-8.255 12.955 12.955 0 0 0-3.032-4.556c-2.548-2.374-5.517-3.009-9.12-3.58z" fill="#000"/><path d="M8.79 22.177a18.701 18.701 0 0 1-7.375-2.89c-3.533 10.018 3.66 23.854 17.701 21.282A41.351 41.351 0 0 0 8.051 29.694a.794.794 0 0 1 .889-1.286 43.66 43.66 0 0 1 10.7 10.16 26.987 26.987 0 0 1 1.302-8.255 12.955 12.955 0 0 0-3.032-4.556c-2.548-2.374-5.517-3.009-9.12-3.58z" fill="url(#c)"/><path d="M8.79 22.177a18.701 18.701 0 0 1-7.375-2.89c-3.533 10.018 3.66 23.854 17.701 21.282A41.351 41.351 0 0 0 8.051 29.694a.794.794 0 0 1 .889-1.286 43.66 43.66 0 0 1 10.7 10.16 26.987 26.987 0 0 1 1.302-8.255 12.955 12.955 0 0 0-3.032-4.556c-2.548-2.374-5.517-3.009-9.12-3.58z" fill="url(#d)"/><path d="m22.768 21.724 10.057-10.177a6.398 6.398 0 0 0 1.85-4.524 6.35 6.35 0 0 0-10.78-4.525l-.564.564a.794.794 0 0 1-1.127 0l-.555-.556A6.216 6.216 0 0 0 17.21.625c-5.62 0-8.438 6.914-4.469 10.915l10.026 10.184zM17.21 2.212c.32.006.64.04.953.104a.811.811 0 1 1-.334 1.587 2.833 2.833 0 0 0-.619-.103.794.794 0 0 1 0-1.588zm-3.365 1.405a.794.794 0 0 1 1.127 1.12 3.278 3.278 0 0 0-.302 4.23.794.794 0 1 1-1.27.945 4.874 4.874 0 0 1 .445-6.295z" fill="#000"/><path d="m22.768 21.724 10.057-10.177a6.398 6.398 0 0 0 1.85-4.524 6.35 6.35 0 0 0-10.78-4.525l-.564.564a.794.794 0 0 1-1.127 0l-.555-.556A6.216 6.216 0 0 0 17.21.625c-5.62 0-8.438 6.914-4.469 10.915l10.026 10.184zM17.21 2.212c.32.006.64.04.953.104a.811.811 0 1 1-.334 1.587 2.833 2.833 0 0 0-.619-.103.794.794 0 0 1 0-1.588zm-3.365 1.405a.794.794 0 0 1 1.127 1.12 3.278 3.278 0 0 0-.302 4.23.794.794 0 1 1-1.27.945 4.874 4.874 0 0 1 .445-6.295z" fill="url(#e)"/><path d="m22.768 21.724 10.057-10.177a6.398 6.398 0 0 0 1.85-4.524 6.35 6.35 0 0 0-10.78-4.525l-.564.564a.794.794 0 0 1-1.127 0l-.555-.556A6.216 6.216 0 0 0 17.21.625c-5.62 0-8.438 6.914-4.469 10.915l10.026 10.184zM17.21 2.212c.32.006.64.04.953.104a.811.811 0 1 1-.334 1.587 2.833 2.833 0 0 0-.619-.103.794.794 0 0 1 0-1.588zm-3.365 1.405a.794.794 0 0 1 1.127 1.12 3.278 3.278 0 0 0-.302 4.23.794.794 0 1 1-1.27.945 4.874 4.874 0 0 1 .445-6.295z" fill="url(#f)"/><defs><linearGradient id="a" x1="33.08" y1="19.303" x2="33.08" y2="45.123" gradientUnits="userSpaceOnUse"><stop stop-color="#B4C4FF"/><stop offset="1" stop-color="#FF889D"/></linearGradient><linearGradient id="b" x1="33.08" y1="19.303" x2="33.08" y2="45.123" gradientUnits="userSpaceOnUse"><stop stop-color="#B4C4FF"/><stop offset="1" stop-color="#FFDBE1"/></linearGradient><linearGradient id="c" x1="10.733" y1="19.287" x2="10.733" y2="40.882" gradientUnits="userSpaceOnUse"><stop stop-color="#B4C4FF"/><stop offset="1" stop-color="#FF889D"/></linearGradient><linearGradient id="d" x1="10.733" y1="19.287" x2="10.733" y2="40.882" gradientUnits="userSpaceOnUse"><stop stop-color="#B4C4FF"/><stop offset="1" stop-color="#FFDBE1"/></linearGradient><linearGradient id="e" x1="22.781" y1=".625" x2="22.781" y2="21.724" gradientUnits="userSpaceOnUse"><stop stop-color="#B4C4FF"/><stop offset="1" stop-color="#FF889D"/></linearGradient><linearGradient id="f" x1="22.781" y1=".625" x2="22.781" y2="21.724" gradientUnits="userSpaceOnUse"><stop stop-color="#B4C4FF"/><stop offset="1" stop-color="#FFDBE1"/></linearGradient></defs></svg>