<svg width="54" height="56" fill="none" xmlns="http://www.w3.org/2000/svg"><path d="M53.322 15.125a.907.907 0 0 0-.912-.48.894.894 0 0 0-.342.117c-.387.21-.774.401-1.18.573L38.628 2.64c.15-.423.334-.832.552-1.222a.972.972 0 0 0-.353-1.3.893.893 0 0 0-1.022.095.942.942 0 0 0-.229.289 12.039 12.039 0 0 0-.793 9.488 19.285 19.285 0 0 0-12.569-2.697c-4.362.567-8.42 2.62-11.533 5.833-3.115 3.214-5.11 7.408-5.673 11.923A21.154 21.154 0 0 0 9.57 38.072a10.95 10.95 0 0 0-4.63-.571 11.035 11.035 0 0 0-4.46 1.411.956.956 0 0 0-.442.57.992.992 0 0 0 .073.728.94.94 0 0 0 .233.284.906.906 0 0 0 .68.197.895.895 0 0 0 .341-.118c.368-.211.75-.396 1.143-.553l12.28 12.714c-.152.407-.33.802-.535 1.184a.97.97 0 0 0 .35 1.298.956.956 0 0 0 .443.114.878.878 0 0 0 .473-.13.92.92 0 0 0 .338-.366 12.062 12.062 0 0 0 .793-9.43 19.274 19.274 0 0 0 12.584 2.67c4.365-.58 8.42-2.645 11.527-5.873 3.106-3.227 5.088-7.433 5.633-11.954a21.141 21.141 0 0 0-2.623-13.022c1.5.542 3.092.75 4.674.612a11.021 11.021 0 0 0 4.508-1.414.962.962 0 0 0 .44-.57.997.997 0 0 0-.071-.728zm-39.364-.63c.221-.229.46-.458.682-.687l6.03 6.262a.925.925 0 0 1 .276.668.952.952 0 0 1-.277.668.866.866 0 0 1-1.29 0l-6.048-6.243c.203-.229.406-.439.627-.668zm1.364 36.082L4.592 39.466a9.12 9.12 0 0 1 4.354.378 9.38 9.38 0 0 1 3.721 2.371 9.823 9.823 0 0 1 2.29 3.853 10.09 10.09 0 0 1 .365 4.509zm9.2-4.391L8.833 29.94a18.106 18.106 0 0 1-.11-2.826L27.252 46.3c-.912.038-1.824 0-2.73-.114zm5.845-13.23c.115.223.14.484.072.727a.961.961 0 0 1-.44.571.956.956 0 0 1-.443.115.877.877 0 0 1-.473-.13.92.92 0 0 1-.338-.367l-.738-1.413h-2.544l-.59 1.356a.977.977 0 0 1-.348.401.93.93 0 0 1-.5.153.728.728 0 0 1-.387-.096.906.906 0 0 1-.292-.216.943.943 0 0 1-.24-.684.962.962 0 0 1 .089-.36l.332-.764a4.588 4.588 0 0 1-2.102-1.393l-.885.515a.812.812 0 0 1-.46.134.9.9 0 0 1-.558-.198.955.955 0 0 1-.327-.508.985.985 0 0 1 .037-.609.943.943 0 0 1 .386-.46l.885-.535a4.864 4.864 0 0 1 0-3.016l-.885-.535a.946.946 0 0 1-.425-.578.978.978 0 0 1 .093-.72.921.921 0 0 1 .558-.44.89.89 0 0 1 .696.096l.885.516a4.59 4.59 0 0 1 2.102-1.394l-.332-.764a.962.962 0 0 1 .151-1.043.907.907 0 0 1 .291-.216.9.9 0 0 1 .71-.036c.231.086.42.264.526.494l.59 1.355h2.544l.738-1.413a.95.95 0 0 1 .23-.286.913.913 0 0 1 .68-.207.902.902 0 0 1 .62.35.968.968 0 0 1 .2.703.981.981 0 0 1-.108.357l-.387.725a4.58 4.58 0 0 1 2.028 1.375l.885-.516a.89.89 0 0 1 .696-.097.921.921 0 0 1 .558.441.978.978 0 0 1 .094.72.946.946 0 0 1-.426.578l-.885.535c.32.978.32 2.038 0 3.016l.885.535c.174.105.31.267.386.46.077.194.09.408.037.61a.955.955 0 0 1-.327.507.9.9 0 0 1-.557.198.812.812 0 0 1-.46-.134l-.886-.515a4.579 4.579 0 0 1-2.028 1.374l.387.726zm9.717 7.216c-.222.23-.424.458-.646.688-.22.229-.424.439-.645.649h-.018l-6.01-6.243a.963.963 0 0 1-.262-.666.962.962 0 0 1 .268-.664c.17-.176.4-.275.64-.276a.896.896 0 0 1 .644.27l6.029 6.223v.02zm4.498-14.738c.111.937.148 1.882.111 2.826L26.145 9.054c.911-.038 1.824 0 2.729.115l15.709 16.265zm-3.816-12.313a9.975 9.975 0 0 1-2.279-3.848 10.243 10.243 0 0 1-.395-4.495l10.731 11.11a9.26 9.26 0 0 1-4.341-.408 9.523 9.523 0 0 1-3.716-2.36z" fill="#000"/><path d="M53.322 15.125a.907.907 0 0 0-.912-.48.894.894 0 0 0-.342.117c-.387.21-.774.401-1.18.573L38.628 2.64c.15-.423.334-.832.552-1.222a.972.972 0 0 0-.353-1.3.893.893 0 0 0-1.022.095.942.942 0 0 0-.229.289 12.039 12.039 0 0 0-.793 9.488 19.285 19.285 0 0 0-12.569-2.697c-4.362.567-8.42 2.62-11.533 5.833-3.115 3.214-5.11 7.408-5.673 11.923A21.154 21.154 0 0 0 9.57 38.072a10.95 10.95 0 0 0-4.63-.571 11.035 11.035 0 0 0-4.46 1.411.956.956 0 0 0-.442.57.992.992 0 0 0 .073.728.94.94 0 0 0 .233.284.906.906 0 0 0 .68.197.895.895 0 0 0 .341-.118c.368-.211.75-.396 1.143-.553l12.28 12.714c-.152.407-.33.802-.535 1.184a.97.97 0 0 0 .35 1.298.956.956 0 0 0 .443.114.878.878 0 0 0 .473-.13.92.92 0 0 0 .338-.366 12.062 12.062 0 0 0 .793-9.43 19.274 19.274 0 0 0 12.584 2.67c4.365-.58 8.42-2.645 11.527-5.873 3.106-3.227 5.088-7.433 5.633-11.954a21.141 21.141 0 0 0-2.623-13.022c1.5.542 3.092.75 4.674.612a11.021 11.021 0 0 0 4.508-1.414.962.962 0 0 0 .44-.57.997.997 0 0 0-.071-.728zm-39.364-.63c.221-.229.46-.458.682-.687l6.03 6.262a.925.925 0 0 1 .276.668.952.952 0 0 1-.277.668.866.866 0 0 1-1.29 0l-6.048-6.243c.203-.229.406-.439.627-.668zm1.364 36.082L4.592 39.466a9.12 9.12 0 0 1 4.354.378 9.38 9.38 0 0 1 3.721 2.371 9.823 9.823 0 0 1 2.29 3.853 10.09 10.09 0 0 1 .365 4.509zm9.2-4.391L8.833 29.94a18.106 18.106 0 0 1-.11-2.826L27.252 46.3c-.912.038-1.824 0-2.73-.114zm5.845-13.23c.115.223.14.484.072.727a.961.961 0 0 1-.44.571.956.956 0 0 1-.443.115.877.877 0 0 1-.473-.13.92.92 0 0 1-.338-.367l-.738-1.413h-2.544l-.59 1.356a.977.977 0 0 1-.348.401.93.93 0 0 1-.5.153.728.728 0 0 1-.387-.096.906.906 0 0 1-.292-.216.943.943 0 0 1-.24-.684.962.962 0 0 1 .089-.36l.332-.764a4.588 4.588 0 0 1-2.102-1.393l-.885.515a.812.812 0 0 1-.46.134.9.9 0 0 1-.558-.198.955.955 0 0 1-.327-.508.985.985 0 0 1 .037-.609.943.943 0 0 1 .386-.46l.885-.535a4.864 4.864 0 0 1 0-3.016l-.885-.535a.946.946 0 0 1-.425-.578.978.978 0 0 1 .093-.72.921.921 0 0 1 .558-.44.89.89 0 0 1 .696.096l.885.516a4.59 4.59 0 0 1 2.102-1.394l-.332-.764a.962.962 0 0 1 .151-1.043.907.907 0 0 1 .291-.216.9.9 0 0 1 .71-.036c.231.086.42.264.526.494l.59 1.355h2.544l.738-1.413a.95.95 0 0 1 .23-.286.913.913 0 0 1 .68-.207.902.902 0 0 1 .62.35.968.968 0 0 1 .2.703.981.981 0 0 1-.108.357l-.387.725a4.58 4.58 0 0 1 2.028 1.375l.885-.516a.89.89 0 0 1 .696-.097.921.921 0 0 1 .558.441.978.978 0 0 1 .094.72.946.946 0 0 1-.426.578l-.885.535c.32.978.32 2.038 0 3.016l.885.535c.174.105.31.267.386.46.077.194.09.408.037.61a.955.955 0 0 1-.327.507.9.9 0 0 1-.557.198.812.812 0 0 1-.46-.134l-.886-.515a4.579 4.579 0 0 1-2.028 1.374l.387.726zm9.717 7.216c-.222.23-.424.458-.646.688-.22.229-.424.439-.645.649h-.018l-6.01-6.243a.963.963 0 0 1-.262-.666.962.962 0 0 1 .268-.664c.17-.176.4-.275.64-.276a.896.896 0 0 1 .644.27l6.029 6.223v.02zm4.498-14.738c.111.937.148 1.882.111 2.826L26.145 9.054c.911-.038 1.824 0 2.729.115l15.709 16.265zm-3.816-12.313a9.975 9.975 0 0 1-2.279-3.848 10.243 10.243 0 0 1-.395-4.495l10.731 11.11a9.26 9.26 0 0 1-4.341-.408 9.523 9.523 0 0 1-3.716-2.36z" fill="url(#a)"/><path d="M28.56 24.823h-3.687c-.733 0-1.437.302-1.956.839a2.916 2.916 0 0 0-.81 2.025c0 .76.292 1.488.81 2.025a2.718 2.718 0 0 0 1.956.838h3.688c.733 0 1.436-.301 1.955-.838.519-.537.81-1.266.81-2.025 0-.76-.291-1.488-.81-2.025a2.718 2.718 0 0 0-1.955-.839zm.056 3.818h-3.798a.906.906 0 0 1-.652-.28.972.972 0 0 1-.27-.674c0-.253.097-.496.27-.675a.906.906 0 0 1 .652-.28h3.798c.244 0 .479.1.652.28.173.179.27.422.27.675a.972.972 0 0 1-.27.675.906.906 0 0 1-.652.28z" fill="#000"/><path d="M28.56 24.823h-3.687c-.733 0-1.437.302-1.956.839a2.916 2.916 0 0 0-.81 2.025c0 .76.292 1.488.81 2.025a2.718 2.718 0 0 0 1.956.838h3.688c.733 0 1.436-.301 1.955-.838.519-.537.81-1.266.81-2.025 0-.76-.291-1.488-.81-2.025a2.718 2.718 0 0 0-1.955-.839zm.056 3.818h-3.798a.906.906 0 0 1-.652-.28.972.972 0 0 1-.27-.674c0-.253.097-.496.27-.675a.906.906 0 0 1 .652-.28h3.798c.244 0 .479.1.652.28.173.179.27.422.27.675a.972.972 0 0 1-.27.675.906.906 0 0 1-.652.28z" fill="url(#b)"/><defs><linearGradient id="a" x1="26.716" y1="0" x2="26.716" y2="55.33" gradientUnits="userSpaceOnUse"><stop stop-color="#B4C4FF"/><stop offset="1" stop-color="#FFDBE1"/></linearGradient><linearGradient id="b" x1="26.717" y1="24.823" x2="26.717" y2="30.55" gradientUnits="userSpaceOnUse"><stop stop-color="#B4C4FF"/><stop offset="1" stop-color="#FFDBE1"/></linearGradient></defs></svg>