<svg width="47" height="56" fill="none" xmlns="http://www.w3.org/2000/svg"><path d="m45.237 32.003-4.13 1.104-3.656-2.11V18.609l3.655-2.11 4.13 1.104.833-3.113-3.216-.86.863-3.216-3.112-.836-1.11 4.13-3.646 2.106L25.11 9.608V5.404l3.022-3.026-2.28-2.277L23.5 2.457 21.147.1l-2.28 2.277 3.022 3.025v4.204l-10.737 6.207-3.647-2.106-1.109-4.13-3.112.836.864 3.216-3.217.86.832 3.113 4.131-1.104 3.655 2.11v12.388l-3.655 2.11-4.13-1.104-.833 3.113 3.217.86-.864 3.216 3.112.835 1.11-4.129 3.647-2.106 10.736 6.206v5.896a2.227 2.227 0 0 1-2.225 2.225H11.76a5.453 5.453 0 0 0-5.447 5.447v1.535h3.222v-1.535c0-1.227.998-2.225 2.225-2.225h1.473a5.418 5.418 0 0 0-.475 2.225v1.535h3.223v-1.535c0-1.227.998-2.225 2.225-2.225h1.459a5.43 5.43 0 0 0 3.836-1.583 5.43 5.43 0 0 0 3.836 1.583h1.46c1.226 0 2.224.998 2.224 2.225v1.535h3.223v-1.535c0-.792-.17-1.545-.475-2.225h1.473c1.227 0 2.225.998 2.225 2.225v1.535h3.222v-1.535a5.453 5.453 0 0 0-5.447-5.447h-7.905a2.227 2.227 0 0 1-2.225-2.225v-5.896l10.736-6.206 3.648 2.106 1.109 4.13 3.112-.836-.864-3.216 3.217-.86-.832-3.113zM23.5 30.411a5.612 5.612 0 0 1-5.603-5.608c.282-7.43 10.926-7.428 11.206 0a5.612 5.612 0 0 1-5.603 5.608z" fill="#000"/><path d="m45.237 32.003-4.13 1.104-3.656-2.11V18.609l3.655-2.11 4.13 1.104.833-3.113-3.216-.86.863-3.216-3.112-.836-1.11 4.13-3.646 2.106L25.11 9.608V5.404l3.022-3.026-2.28-2.277L23.5 2.457 21.147.1l-2.28 2.277 3.022 3.025v4.204l-10.737 6.207-3.647-2.106-1.109-4.13-3.112.836.864 3.216-3.217.86.832 3.113 4.131-1.104 3.655 2.11v12.388l-3.655 2.11-4.13-1.104-.833 3.113 3.217.86-.864 3.216 3.112.835 1.11-4.129 3.647-2.106 10.736 6.206v5.896a2.227 2.227 0 0 1-2.225 2.225H11.76a5.453 5.453 0 0 0-5.447 5.447v1.535h3.222v-1.535c0-1.227.998-2.225 2.225-2.225h1.473a5.418 5.418 0 0 0-.475 2.225v1.535h3.223v-1.535c0-1.227.998-2.225 2.225-2.225h1.459a5.43 5.43 0 0 0 3.836-1.583 5.43 5.43 0 0 0 3.836 1.583h1.46c1.226 0 2.224.998 2.224 2.225v1.535h3.223v-1.535c0-.792-.17-1.545-.475-2.225h1.473c1.227 0 2.225.998 2.225 2.225v1.535h3.222v-1.535a5.453 5.453 0 0 0-5.447-5.447h-7.905a2.227 2.227 0 0 1-2.225-2.225v-5.896l10.736-6.206 3.648 2.106 1.109 4.13 3.112-.836-.864-3.216 3.217-.86-.832-3.113zM23.5 30.411a5.612 5.612 0 0 1-5.603-5.608c.282-7.43 10.926-7.428 11.206 0a5.612 5.612 0 0 1-5.603 5.608z" fill="url(#a)"/><path d="M23.5 22.418a2.386 2.386 0 0 0-2.38 2.385c.12 3.16 4.642 3.16 4.76 0a2.386 2.386 0 0 0-2.38-2.385z" fill="#000"/><path d="M23.5 22.418a2.386 2.386 0 0 0-2.38 2.385c.12 3.16 4.642 3.16 4.76 0a2.386 2.386 0 0 0-2.38-2.385z" fill="url(#b)"/><defs><linearGradient id="a" x1="23.5" y1=".101" x2="23.5" y2="55.101" gradientUnits="userSpaceOnUse"><stop stop-color="#B4C4FF"/><stop offset="1" stop-color="#FFDBE1"/></linearGradient><linearGradient id="b" x1="23.5" y1="22.418" x2="23.5" y2="27.173" gradientUnits="userSpaceOnUse"><stop stop-color="#B4C4FF"/><stop offset="1" stop-color="#FFDBE1"/></linearGradient></defs></svg>