<svg width="44" height="45" fill="none" xmlns="http://www.w3.org/2000/svg"><path d="m43.408 35.417-1.254-.815 1.138-.773a1.301 1.301 0 0 0-.021-2.166l-2.88-1.874a1.3 1.3 0 1 0-1.419 2.181l1.24.807-1.138.773c-.766.52-.76 1.658.022 2.166L41.99 37.6a1.3 1.3 0 1 0 1.418-2.181z" fill="#000"/><path d="m43.408 35.417-1.254-.815 1.138-.773a1.301 1.301 0 0 0-.021-2.166l-2.88-1.874a1.3 1.3 0 1 0-1.419 2.181l1.24.807-1.138.773c-.766.52-.76 1.658.022 2.166L41.99 37.6a1.3 1.3 0 1 0 1.418-2.181z" fill="url(#a)"/><path d="M35.537 36.238a1.3 1.3 0 1 0-2.379 1.054l.6 1.352-1.376.028a1.301 1.301 0 0 0-1.163 1.827l1.399 3.156a1.3 1.3 0 1 0 2.378-1.054l-.606-1.367 1.376-.028a1.301 1.301 0 0 0 1.163-1.827l-1.392-3.141z" fill="#000"/><path d="M35.537 36.238a1.3 1.3 0 1 0-2.379 1.054l.6 1.352-1.376.028a1.301 1.301 0 0 0-1.163 1.827l1.399 3.156a1.3 1.3 0 1 0 2.378-1.054l-.606-1.367 1.376-.028a1.301 1.301 0 0 0 1.163-1.827l-1.392-3.141z" fill="url(#b)"/><path d="M8.713 5.333a1.301 1.301 0 0 0 2.166.022l.774-1.138.806 1.24a1.301 1.301 0 0 0 2.18-1.418l-1.872-2.88a1.301 1.301 0 0 0-2.167-.022l-.773 1.138-.815-1.254A1.3 1.3 0 0 0 6.83 2.44l1.882 2.894z" fill="#000"/><path d="M8.713 5.333a1.301 1.301 0 0 0 2.166.022l.774-1.138.806 1.24a1.301 1.301 0 0 0 2.18-1.418l-1.872-2.88a1.301 1.301 0 0 0-2.167-.022l-.773 1.138-.815-1.254A1.3 1.3 0 0 0 6.83 2.44l1.882 2.894z" fill="url(#c)"/><path d="M.774 11.812c3.176 1.369 3.202 1.51 3.683 1.51.708 0 1.287-.567 1.3-1.275l.028-1.376 1.352.6a1.3 1.3 0 0 0 1.055-2.379L5.05 7.5a1.301 1.301 0 0 0-1.827 1.164l-.028 1.375-1.367-.606a1.3 1.3 0 0 0-1.054 2.379z" fill="#000"/><path d="M.774 11.812c3.176 1.369 3.202 1.51 3.683 1.51.708 0 1.287-.567 1.3-1.275l.028-1.376 1.352.6a1.3 1.3 0 0 0 1.055-2.379L5.05 7.5a1.301 1.301 0 0 0-1.827 1.164l-.028 1.375-1.367-.606a1.3 1.3 0 0 0-1.054 2.379z" fill="url(#d)"/><path d="M6.084 23.872c1.312-3.255 3.01-6.779 6.387-10.155 3.924-3.924 7.849-5.504 12.46-7.288-5.491.072-9.884.845-13.96 4.921-3.614 3.615-4.712 7.624-4.887 12.522z" fill="#000"/><path d="M6.084 23.872c1.312-3.255 3.01-6.779 6.387-10.155 3.924-3.924 7.849-5.504 12.46-7.288-5.491.072-9.884.845-13.96 4.921-3.614 3.615-4.712 7.624-4.887 12.522z" fill="url(#e)"/><path d="M43.492 3.974 40.389.87a.43.43 0 0 0-.608 0L.438 40.214a.43.43 0 0 0 0 .607l3.104 3.103a.43.43 0 0 0 .607 0L43.492 4.581a.43.43 0 0 0 0-.607z" fill="#000"/><path d="M43.492 3.974 40.389.87a.43.43 0 0 0-.608 0L.438 40.214a.43.43 0 0 0 0 .607l3.104 3.103a.43.43 0 0 0 .607 0L43.492 4.581a.43.43 0 0 0 0-.607z" fill="url(#f)"/><path d="m5.93 31.044 23.869-23.87c-4.717 2.383-10.295 3.19-15.488 8.382C9.118 20.75 8.312 26.327 5.93 31.044z" fill="#000"/><path d="m5.93 31.044 23.869-23.87c-4.717 2.383-10.295 3.19-15.488 8.382C9.118 20.75 8.312 26.327 5.93 31.044z" fill="url(#g)"/><path d="M19.604 38.335c5.31-.082 9.566-.978 13.47-4.883 5.13-5.13 4.827-10.72 4.906-16.242-2.737 6.466-4.442 15.608-18.376 21.125z" fill="#000"/><path d="M19.604 38.335c5.31-.082 9.566-.978 13.47-4.883 5.13-5.13 4.827-10.72 4.906-16.242-2.737 6.466-4.442 15.608-18.376 21.125z" fill="url(#h)"/><path d="M35.606 16.146 14.033 37.72c4.435-1.887 9.35-2.988 13.967-7.606 4.62-4.619 5.724-9.542 7.606-13.967z" fill="#000"/><path d="M35.606 16.146 14.033 37.72c4.435-1.887 9.35-2.988 13.967-7.606 4.62-4.619 5.724-9.542 7.606-13.967z" fill="url(#i)"/><defs><linearGradient id="a" x1="41.19" y1="29.579" x2="41.19" y2="37.809" gradientUnits="userSpaceOnUse"><stop stop-color="#B4C4FF"/><stop offset="1" stop-color="#FFDBE1"/></linearGradient><linearGradient id="b" x1="34.074" y1="35.464" x2="34.074" y2="44.429" gradientUnits="userSpaceOnUse"><stop stop-color="#B4C4FF"/><stop offset="1" stop-color="#FFDBE1"/></linearGradient><linearGradient id="c" x1="10.735" y1=".429" x2="10.735" y2="6.049" gradientUnits="userSpaceOnUse"><stop stop-color="#B4C4FF"/><stop offset="1" stop-color="#FFDBE1"/></linearGradient><linearGradient id="d" x1="4.483" y1="7.388" x2="4.483" y2="13.322" gradientUnits="userSpaceOnUse"><stop stop-color="#B4C4FF"/><stop offset="1" stop-color="#FFDBE1"/></linearGradient><linearGradient id="e" x1="15.507" y1="6.429" x2="15.507" y2="23.872" gradientUnits="userSpaceOnUse"><stop stop-color="#B4C4FF"/><stop offset="1" stop-color="#FFDBE1"/></linearGradient><linearGradient id="f" x1="21.965" y1=".745" x2="21.965" y2="44.05" gradientUnits="userSpaceOnUse"><stop stop-color="#B4C4FF"/><stop offset="1" stop-color="#FFDBE1"/></linearGradient><linearGradient id="g" x1="17.864" y1="7.175" x2="17.864" y2="31.044" gradientUnits="userSpaceOnUse"><stop stop-color="#B4C4FF"/><stop offset="1" stop-color="#FFDBE1"/></linearGradient><linearGradient id="h" x1="28.792" y1="17.21" x2="28.792" y2="38.335" gradientUnits="userSpaceOnUse"><stop stop-color="#B4C4FF"/><stop offset="1" stop-color="#FFDBE1"/></linearGradient><linearGradient id="i" x1="24.82" y1="16.146" x2="24.82" y2="37.719" gradientUnits="userSpaceOnUse"><stop stop-color="#B4C4FF"/><stop offset="1" stop-color="#FFDBE1"/></linearGradient></defs></svg>