<svg width="42" height="46" fill="none" xmlns="http://www.w3.org/2000/svg"><path d="M41.895 1.73a1.686 1.686 0 0 0-1.88-1.635 1.729 1.729 0 0 0-1.487 1.77c.037 2.037.079 5.289.028 6.834-.05 1.525-.752 3.292-1.614 4.949a.502.502 0 0 1-.855.056 12.552 12.552 0 0 0-2.217-2.381C30.08 8.2 25.055 6.903 21.39 6.903c-3.664 0-8.69 1.298-12.478 4.42a12.55 12.55 0 0 0-2.218 2.382.503.503 0 0 1-.855-.056c-.862-1.657-1.564-3.424-1.614-4.949-.051-1.545-.007-4.796.028-6.833A1.729 1.729 0 0 0 2.766.097 1.684 1.684 0 0 0 .887 1.73C.841 3.813.791 7.31.93 8.783c.314 3.332 1.663 5.968 3.17 8.505.312.532.416 1.16.294 1.764-.201.993-.267 2.008-.196 3.019.34 4.235 2.467 8.604 10.175 12.732 3.147 1.686 3.694 4.341 3.518 9.056a1.193 1.193 0 0 0 1.052 1.25 1.149 1.149 0 0 0 1.242-1.093c.123-2.822.696-6.847-2.059-9.681a.088.088 0 0 1-.015-.107.088.088 0 0 1 .1-.042c1.037.28 2.106.426 3.18.434a13.674 13.674 0 0 0 3.135-.38.086.086 0 0 1 .107.097.087.087 0 0 1-.025.05c-2.687 2.815-2.139 6.784-2.014 9.586a1.18 1.18 0 0 0 .962 1.126 1.151 1.151 0 0 0 1.336-1.185c-.183-4.748.356-7.418 3.515-9.11 7.708-4.13 9.835-8.497 10.175-12.732.07-1.01.005-2.026-.196-3.02a2.509 2.509 0 0 1 .293-1.763c1.508-2.538 2.856-5.174 3.171-8.505.142-1.473.092-4.967.045-7.054zM35.57 23.12c-.126.601-.29 1.194-.492 1.774a.839.839 0 0 1-1.232.428c-9.986-6.092-14.133 5.537-25.61.296a.834.834 0 0 1-.432-.455 13.777 13.777 0 0 1-.592-2.043c-.68-3.129.724-7.477 3.622-9.763 2.274-1.794 6.53-3.602 10.557-3.602 4.028 0 8.284 1.808 10.557 3.602 2.899 2.286 4.303 6.634 3.623 9.763z" fill="#000"/><path d="M41.895 1.73a1.686 1.686 0 0 0-1.88-1.635 1.729 1.729 0 0 0-1.487 1.77c.037 2.037.079 5.289.028 6.834-.05 1.525-.752 3.292-1.614 4.949a.502.502 0 0 1-.855.056 12.552 12.552 0 0 0-2.217-2.381C30.08 8.2 25.055 6.903 21.39 6.903c-3.664 0-8.69 1.298-12.478 4.42a12.55 12.55 0 0 0-2.218 2.382.503.503 0 0 1-.855-.056c-.862-1.657-1.564-3.424-1.614-4.949-.051-1.545-.007-4.796.028-6.833A1.729 1.729 0 0 0 2.766.097 1.684 1.684 0 0 0 .887 1.73C.841 3.813.791 7.31.93 8.783c.314 3.332 1.663 5.968 3.17 8.505.312.532.416 1.16.294 1.764-.201.993-.267 2.008-.196 3.019.34 4.235 2.467 8.604 10.175 12.732 3.147 1.686 3.694 4.341 3.518 9.056a1.193 1.193 0 0 0 1.052 1.25 1.149 1.149 0 0 0 1.242-1.093c.123-2.822.696-6.847-2.059-9.681a.088.088 0 0 1-.015-.107.088.088 0 0 1 .1-.042c1.037.28 2.106.426 3.18.434a13.674 13.674 0 0 0 3.135-.38.086.086 0 0 1 .107.097.087.087 0 0 1-.025.05c-2.687 2.815-2.139 6.784-2.014 9.586a1.18 1.18 0 0 0 .962 1.126 1.151 1.151 0 0 0 1.336-1.185c-.183-4.748.356-7.418 3.515-9.11 7.708-4.13 9.835-8.497 10.175-12.732.07-1.01.005-2.026-.196-3.02a2.509 2.509 0 0 1 .293-1.763c1.508-2.538 2.856-5.174 3.171-8.505.142-1.473.092-4.967.045-7.054zM35.57 23.12c-.126.601-.29 1.194-.492 1.774a.839.839 0 0 1-1.232.428c-9.986-6.092-14.133 5.537-25.61.296a.834.834 0 0 1-.432-.455 13.777 13.777 0 0 1-.592-2.043c-.68-3.129.724-7.477 3.622-9.763 2.274-1.794 6.53-3.602 10.557-3.602 4.028 0 8.284 1.808 10.557 3.602 2.899 2.286 4.303 6.634 3.623 9.763z" fill="url(#a)"/><path d="M41.895 1.73a1.686 1.686 0 0 0-1.88-1.635 1.729 1.729 0 0 0-1.487 1.77c.037 2.037.079 5.289.028 6.834-.05 1.525-.752 3.292-1.614 4.949a.502.502 0 0 1-.855.056 12.552 12.552 0 0 0-2.217-2.381C30.08 8.2 25.055 6.903 21.39 6.903c-3.664 0-8.69 1.298-12.478 4.42a12.55 12.55 0 0 0-2.218 2.382.503.503 0 0 1-.855-.056c-.862-1.657-1.564-3.424-1.614-4.949-.051-1.545-.007-4.796.028-6.833A1.729 1.729 0 0 0 2.766.097 1.684 1.684 0 0 0 .887 1.73C.841 3.813.791 7.31.93 8.783c.314 3.332 1.663 5.968 3.17 8.505.312.532.416 1.16.294 1.764-.201.993-.267 2.008-.196 3.019.34 4.235 2.467 8.604 10.175 12.732 3.147 1.686 3.694 4.341 3.518 9.056a1.193 1.193 0 0 0 1.052 1.25 1.149 1.149 0 0 0 1.242-1.093c.123-2.822.696-6.847-2.059-9.681a.088.088 0 0 1-.015-.107.088.088 0 0 1 .1-.042c1.037.28 2.106.426 3.18.434a13.674 13.674 0 0 0 3.135-.38.086.086 0 0 1 .107.097.087.087 0 0 1-.025.05c-2.687 2.815-2.139 6.784-2.014 9.586a1.18 1.18 0 0 0 .962 1.126 1.151 1.151 0 0 0 1.336-1.185c-.183-4.748.356-7.418 3.515-9.11 7.708-4.13 9.835-8.497 10.175-12.732.07-1.01.005-2.026-.196-3.02a2.509 2.509 0 0 1 .293-1.763c1.508-2.538 2.856-5.174 3.171-8.505.142-1.473.092-4.967.045-7.054zM35.57 23.12c-.126.601-.29 1.194-.492 1.774a.839.839 0 0 1-1.232.428c-9.986-6.092-14.133 5.537-25.61.296a.834.834 0 0 1-.432-.455 13.777 13.777 0 0 1-.592-2.043c-.68-3.129.724-7.477 3.622-9.763 2.274-1.794 6.53-3.602 10.557-3.602 4.028 0 8.284 1.808 10.557 3.602 2.899 2.286 4.303 6.634 3.623 9.763z" fill="url(#b)"/><defs><linearGradient id="a" x1="21.391" y1=".084" x2="21.391" y2="45.114" gradientUnits="userSpaceOnUse"><stop stop-color="#B4C4FF"/><stop offset="1" stop-color="#FF889D"/></linearGradient><linearGradient id="b" x1="21.391" y1=".084" x2="21.391" y2="45.114" gradientUnits="userSpaceOnUse"><stop stop-color="#B4C4FF"/><stop offset="1" stop-color="#FFDBE1"/></linearGradient></defs></svg>