<svg width="16" height="16" viewBox="0 0 16 16" fill="none" xmlns="http://www.w3.org/2000/svg">
<g clip-path="url(#clip0_401_387)">
<path d="M16 0H0V16H16V0Z" fill="white"/>
<path d="M8 16C12.4183 16 16 12.4183 16 8C16 3.58172 12.4183 0 8 0C3.58172 0 0 3.58172 0 8C0 12.4183 3.58172 16 8 16Z" fill="#FF4E4E"/>
<path d="M8.03012 14C6.29619 14 4.85492 13.4286 3.70633 12.2857C2.56878 11.1319 2 9.7033 2 8C2 6.2967 2.56878 4.87363 3.70633 3.73077C4.85492 2.57692 6.29619 2 8.03012 2C9.06827 2 10.0291 2.24176 10.9127 2.72528C11.7962 3.1978 12.492 3.84615 13 4.67033L10.7139 5.98901C10.4598 5.53846 10.0954 5.19231 9.62048 4.95055C9.14558 4.6978 8.61546 4.57143 8.03012 4.57143C7.00301 4.57143 6.18022 4.88462 5.56175 5.51099C4.95432 6.13736 4.6506 6.96703 4.6506 8C4.6506 9.03297 4.95432 9.86264 5.56175 10.489C6.18022 11.1154 7.00301 11.4286 8.03012 11.4286C8.61546 11.4286 9.14558 11.3022 9.62048 11.0495C10.1064 10.7967 10.4709 10.4505 10.7139 10.011L13 11.3297C12.503 12.1538 11.8128 12.8077 10.9292 13.2912C10.0457 13.7637 9.07932 14 8.03012 14Z" fill="white"/>
</g>
<defs>
<clipPath id="clip0_401_387">
<rect width="16" height="16" rx="8" fill="white"/>
</clipPath>
</defs>
</svg>
