<svg width="18" height="18" fill="none" xmlns="http://www.w3.org/2000/svg"><g clip-path="url(#a)" fill="#FF4E4E"><path d="M10.504 11.028a2.704 2.704 0 0 1-3.008 0L.12 6.111A2.68 2.68 0 0 1 0 6.026v8.058c0 .924.75 1.657 1.657 1.657h14.686c.924 0 1.657-.75 1.657-1.657V6.026c-.04.03-.08.058-.12.085l-7.376 4.917z"/><path d="m.705 5.233 7.376 4.918a1.655 1.655 0 0 0 1.838 0l7.376-4.918A1.58 1.58 0 0 0 18 3.916c0-.914-.743-1.657-1.657-1.657H1.656C.743 2.26 0 3.002 0 3.917c0 .53.264 1.022.705 1.316z"/></g><defs><clipPath id="a"><path fill="#fff" d="M0 0h18v18H0z"/></clipPath></defs></svg>