<svg width="24" height="25" fill="none" xmlns="http://www.w3.org/2000/svg"><g clip-path="url(#a)" fill="#fff"><path d="M4.969 24.76H19.03c1.163 0 2.11-.946 2.11-2.109V7.792h-4.922a2.112 2.112 0 0 1-2.11-2.11V.762H4.97c-1.163 0-2.11.946-2.11 2.11v19.78c0 1.163.947 2.11 2.11 2.11zM7.78 10.652h8.438a.703.703 0 1 1 0 1.407H7.78a.703.703 0 1 1 0-1.407zm0 2.813h8.438a.703.703 0 1 1 0 1.406H7.78a.703.703 0 1 1 0-1.406zm0 2.812h8.438a.703.703 0 1 1 0 1.407H7.78a.703.703 0 1 1 0-1.407zm0 2.813h5.625a.703.703 0 1 1 0 1.406H7.781a.703.703 0 1 1 0-1.406z"/><path d="M16.219 6.386h4.51l-5.213-5.213v4.51c0 .388.315.703.703.703z"/></g><defs><clipPath id="a"><path fill="#fff" transform="translate(0 .76)" d="M0 0h24v24H0z"/></clipPath></defs></svg>