<svg width="259" height="41" fill="none" xmlns="http://www.w3.org/2000/svg"><path d="M67.882 32.476c-3.582 0-6.54-1.19-8.874-3.57-2.335-2.38-3.502-5.315-3.502-8.806 0-3.513 1.167-6.449 3.502-8.806 2.334-2.38 5.292-3.57 8.874-3.57 2.153 0 4.136.51 5.95 1.53 1.836.997 3.264 2.357 4.284 4.08L74.07 15.68a6.171 6.171 0 0 0-2.516-2.482c-1.088-.612-2.312-.918-3.672-.918-2.312 0-4.182.725-5.61 2.176-1.405 1.45-2.108 3.332-2.108 5.644 0 2.29.703 4.16 2.108 5.61 1.428 1.45 3.298 2.176 5.61 2.176 1.36 0 2.584-.295 3.672-.884 1.11-.612 1.95-1.44 2.516-2.482l4.046 2.346c-1.02 1.723-2.437 3.094-4.25 4.114-1.814.997-3.808 1.496-5.984 1.496zM93.758 8.2h4.692l-7.14 17.238c-1.904 4.624-5.032 6.811-9.384 6.562v-4.386c1.269.113 2.289-.057 3.06-.51.793-.476 1.45-1.235 1.972-2.278L79.172 8.2h4.692l5.202 11.492L93.758 8.2zm25.01 0V32h-4.692V12.688h-8.398V32h-4.692V8.2h17.782zm9.123 19.312h10.03V32h-14.722V8.2h14.552v4.488h-9.86v5.066h9.01v4.42h-9.01v5.338zM150.103 8.2c2.289 0 4.216.77 5.78 2.312 1.564 1.541 2.346 3.434 2.346 5.678 0 2.244-.782 4.137-2.346 5.678-1.564 1.541-3.491 2.312-5.78 2.312h-4.182V32h-4.692V8.2h8.874zm0 11.594c.997 0 1.824-.34 2.482-1.02.657-.703.986-1.564.986-2.584 0-1.043-.329-1.904-.986-2.584-.658-.68-1.485-1.02-2.482-1.02h-4.182v7.208h4.182zM157.555 32v-4.352c1.405.204 2.459-.08 3.162-.85.702-.77 1.054-2.278 1.054-4.522V8.2h16.184V32h-4.658V12.688h-6.868v9.452c0 2.063-.25 3.797-.748 5.202-.499 1.405-1.19 2.448-2.074 3.128-.862.68-1.791 1.133-2.788 1.36-.975.227-2.063.283-3.264.17zm38.582 0V17.482L185.937 32h-3.57V8.2h4.692v14.552l10.2-14.552h3.57V32h-4.692zm32.397-23.8V32h-4.658V16.564l-6.698 11.05h-.544l-6.698-11.016V32h-4.692V8.2h4.828l6.834 11.254 6.8-11.254h4.828zm26.365 5.27c1.972 1.7 2.958 3.91 2.958 6.63 0 2.72-.986 4.93-2.958 6.63-1.972 1.7-4.613 2.709-7.922 3.026v2.754h-4.59v-2.754c-3.332-.34-5.973-1.349-7.922-3.026-1.95-1.7-2.924-3.91-2.924-6.63 0-2.72.974-4.919 2.924-6.596 1.949-1.7 4.59-2.72 7.922-3.06V7.69h4.59v2.754c3.309.317 5.95 1.326 7.922 3.026zm-7.922 12.002c4.125-.476 6.188-2.267 6.188-5.372 0-3.128-2.063-4.93-6.188-5.406v10.778zM236.199 20.1c0 3.105 2.062 4.885 6.188 5.338v-10.71c-4.126.453-6.188 2.244-6.188 5.372z" fill="#010101"/><circle cx="20.5" cy="20.5" r="20.5" fill="#FF4E4E"/></svg>