<svg width="195" height="41" fill="none" xmlns="http://www.w3.org/2000/svg"><path d="M62.809 27.665c-1.006 0-1.928-.125-2.766-.375a5.502 5.502 0 0 1-2.158-1.244c-.586-.566-1.047-1.296-1.382-2.19-.335-.896-.503-1.988-.503-3.277v-.375c0-1.21.175-2.25.524-3.119.349-.868.83-1.578 1.445-2.131a5.842 5.842 0 0 1 2.158-1.224 8.9 8.9 0 0 1 2.682-.395c.852 0 1.648.093 2.388.277.754.184 1.41.473 1.969.868a4.46 4.46 0 0 1 1.383 1.54c.363.631.58 1.401.65 2.309h-3.897a2.733 2.733 0 0 0-.336-.928 1.981 1.981 0 0 0-.565-.631 1.97 1.97 0 0 0-.754-.355 2.921 2.921 0 0 0-.838-.119c-.42 0-.81.072-1.174.217a2.22 2.22 0 0 0-.921.671c-.252.303-.454.704-.608 1.204-.14.5-.21 1.105-.21 1.816v.414c0 .764.077 1.408.231 1.935.168.513.384.934.65 1.263.265.316.572.546.921.69.35.132.72.198 1.11.198.713 0 1.279-.158 1.697-.474.433-.329.699-.848.797-1.559h3.896c-.056.921-.258 1.697-.607 2.329a4.27 4.27 0 0 1-1.362 1.54c-.559.394-1.215.684-1.97.868-.754.17-1.57.256-2.45.256zM73.92 27.665c-.153 0-.306-.007-.46-.02a2.791 2.791 0 0 1-.377-.06v-2.94l.335.04a5.86 5.86 0 0 0 1.152-.02 1.44 1.44 0 0 0 .482-.178c.126-.08.23-.184.314-.316a2.44 2.44 0 0 0 .23-.493l-5.865-10.086h3.813L77.44 20.6l3.059-7.007h3.687l-4.902 10.46a13.901 13.901 0 0 1-.943 1.698 4.405 4.405 0 0 1-1.068 1.105c-.405.29-.88.494-1.425.612-.53.132-1.173.198-1.927.198zM85.861 13.592h12.78v13.816h-3.772V16.513h-5.237v10.895h-3.77V13.592zM101.573 13.592h10.684v2.724h-6.913v2.704h6.285v2.566h-6.285v3.098h6.913v2.724h-10.684V13.592zM114.666 13.592h5.971c2.039 0 3.54.421 4.504 1.263.978.83 1.467 1.98 1.467 3.454 0 1.474-.489 2.632-1.467 3.474-.964.829-2.465 1.243-4.504 1.243h-2.2v4.382h-3.771V13.592zm5.552 6.513c.964 0 1.641-.151 2.032-.454.391-.302.587-.75.587-1.342 0-.592-.196-1.04-.587-1.342-.391-.302-1.068-.454-2.032-.454h-1.781v3.592h1.781zM127.964 27.665c-.111 0-.272-.007-.481-.02-.196 0-.35-.013-.461-.04v-3.118c.07.013.174.02.314.02.335 0 .621-.06.859-.178.251-.119.447-.401.586-.849.154-.447.266-1.105.336-1.973.069-.882.104-2.073.104-3.573v-4.342h11.104v13.816h-3.771V16.493h-3.813v1.836c0 2.053-.112 3.69-.335 4.914-.224 1.224-.545 2.165-.964 2.823-.405.658-.908 1.092-1.508 1.302-.587.198-1.243.297-1.97.297zM143.267 13.592h3.771v8.29l5.761-8.29h3.457v13.816h-3.771v-8.29l-5.761 8.29h-3.457V13.592zM159.184 13.592h3.855l4.064 7.007 4.022-7.007h3.771v13.816h-3.771v-7.915l-3.038 5.25h-2.095l-3.037-5.25v7.915h-3.771V13.592zM184.274 26.816c-1.089 0-2.074-.151-2.954-.454-.866-.303-1.606-.73-2.221-1.283a5.67 5.67 0 0 1-1.424-1.994c-.321-.776-.482-1.638-.482-2.585v-.395c0-.842.161-1.625.482-2.348a5.474 5.474 0 0 1 1.424-1.875c.615-.54 1.355-.954 2.221-1.244.88-.303 1.865-.454 2.954-.454V13h3.645v1.184c1.089 0 2.067.152 2.933.454.88.29 1.627.704 2.242 1.244a5.247 5.247 0 0 1 1.403 1.875c.335.723.503 1.506.503 2.348v.395c0 .947-.168 1.81-.503 2.585a5.446 5.446 0 0 1-1.403 1.994c-.615.553-1.362.98-2.242 1.283-.866.303-1.844.454-2.933.454V28h-3.645v-1.184zm6.829-6.71c0-1.027-.279-1.777-.838-2.25-.558-.474-1.34-.711-2.346-.711v6.71c1.034 0 1.823-.256 2.367-.77.545-.513.817-1.375.817-2.585v-.395zm-10.013.394c0 1.21.265 2.072.796 2.585.53.514 1.326.77 2.388.77v-6.71c-1.034 0-1.823.237-2.367.71-.545.474-.817 1.224-.817 2.25v.395z" fill="#1D1D1D"/><circle cx="20.5" cy="20.5" r="20.5" fill="#FF4E4E"/></svg>