<svg width="58" height="48" fill="none" xmlns="http://www.w3.org/2000/svg"><g clip-path="url(#a)"><path d="M30.563 18.844a1.406 1.406 0 1 0 0-2.813 1.406 1.406 0 0 0 0 2.813z" fill="#000"/><path d="M30.563 18.844a1.406 1.406 0 1 0 0-2.813 1.406 1.406 0 0 0 0 2.813z" fill="url(#b)"/><path d="M30.563 18.844a1.406 1.406 0 1 0 0-2.813 1.406 1.406 0 0 0 0 2.813z" fill="#C6CAF7"/><path d="M42.869 23.1c-6.574 5.57-6.574-2.68-2.748-9.665l1.236-1.73a3.617 3.617 0 0 0-.387-4.676 3.617 3.617 0 0 0-4.675-.386l-1.73 1.236a19.315 19.315 0 0 0-6.636-2.748l-.35-2.099A3.618 3.618 0 0 0 24 0a3.618 3.618 0 0 0-3.58 3.032l-.35 2.1a19.313 19.313 0 0 0-6.635 2.747l-1.73-1.236a3.617 3.617 0 0 0-4.676.387 3.617 3.617 0 0 0-.386 4.675l1.236 1.73a19.315 19.315 0 0 0-2.748 6.636l-2.099.35A3.618 3.618 0 0 0 0 24a3.618 3.618 0 0 0 3.032 3.58l2.1.35a19.312 19.312 0 0 0 2.747 6.635l-1.236 1.73a3.617 3.617 0 0 0 .387 4.675 3.618 3.618 0 0 0 4.675.387l1.73-1.236a19.316 19.316 0 0 0 6.636 2.748l.35 2.099A3.618 3.618 0 0 0 24 48a3.618 3.618 0 0 0 3.58-3.032l.35-2.1a19.314 19.314 0 0 0 6.635-2.747l1.73 1.236a3.617 3.617 0 0 0 4.675-.387 3.617 3.617 0 0 0 .387-4.675l-1.236-1.73a19.314 19.314 0 0 0 2.748-6.636l2.099-.35A3.618 3.618 0 0 0 48 24c0-1.781-5.131 2.296-5.131-.9zm-22.15-11.288a1.406 1.406 0 1 1 0 2.813 1.406 1.406 0 0 1 0-2.813zm-6.15 3.694c.548-.55 1.439-.55 1.988 0l1.875 1.875a1.406 1.406 0 1 1-1.989 1.988l-1.875-1.875c-.55-.549-.55-1.44 0-1.988zm6.618 14.278h-.71a4.22 4.22 0 0 1-.772 1.333l.357.617a1.406 1.406 0 1 1-2.436 1.407l-.356-.616a4.225 4.225 0 0 1-1.54 0l-.356.616a1.406 1.406 0 1 1-2.436-1.407l.357-.617a4.218 4.218 0 0 1-.772-1.333h-.71a1.406 1.406 0 0 1 0-2.812h.71a4.22 4.22 0 0 1 .772-1.333l-.357-.617a1.406 1.406 0 1 1 2.436-1.407l.355.616a4.226 4.226 0 0 1 1.541 0l.356-.616a1.406 1.406 0 1 1 2.436 1.407l-.357.617c.333.39.597.84.772 1.333h.71a1.406 1.406 0 0 1 0 2.812zM24 39a1.406 1.406 0 1 1 0-2.812A1.406 1.406 0 0 1 24 39zm6.563-4.219a4.223 4.223 0 0 1-4.22-4.218 4.223 4.223 0 0 1 4.22-4.22 4.223 4.223 0 0 1 4.218 4.22 4.223 4.223 0 0 1-4.218 4.218zm0-13.125a4.223 4.223 0 0 1-4.22-4.218 4.223 4.223 0 0 1 4.22-4.22 4.223 4.223 0 0 1 4.218 4.22 4.223 4.223 0 0 1-4.218 4.218z" fill="#000"/><path d="M42.869 23.1c-6.574 5.57-6.574-2.68-2.748-9.665l1.236-1.73a3.617 3.617 0 0 0-.387-4.676 3.617 3.617 0 0 0-4.675-.386l-1.73 1.236a19.315 19.315 0 0 0-6.636-2.748l-.35-2.099A3.618 3.618 0 0 0 24 0a3.618 3.618 0 0 0-3.58 3.032l-.35 2.1a19.313 19.313 0 0 0-6.635 2.747l-1.73-1.236a3.617 3.617 0 0 0-4.676.387 3.617 3.617 0 0 0-.386 4.675l1.236 1.73a19.315 19.315 0 0 0-2.748 6.636l-2.099.35A3.618 3.618 0 0 0 0 24a3.618 3.618 0 0 0 3.032 3.58l2.1.35a19.312 19.312 0 0 0 2.747 6.635l-1.236 1.73a3.617 3.617 0 0 0 .387 4.675 3.618 3.618 0 0 0 4.675.387l1.73-1.236a19.316 19.316 0 0 0 6.636 2.748l.35 2.099A3.618 3.618 0 0 0 24 48a3.618 3.618 0 0 0 3.58-3.032l.35-2.1a19.314 19.314 0 0 0 6.635-2.747l1.73 1.236a3.617 3.617 0 0 0 4.675-.387 3.617 3.617 0 0 0 .387-4.675l-1.236-1.73a19.314 19.314 0 0 0 2.748-6.636l2.099-.35A3.618 3.618 0 0 0 48 24c0-1.781-5.131 2.296-5.131-.9zm-22.15-11.288a1.406 1.406 0 1 1 0 2.813 1.406 1.406 0 0 1 0-2.813zm-6.15 3.694c.548-.55 1.439-.55 1.988 0l1.875 1.875a1.406 1.406 0 1 1-1.989 1.988l-1.875-1.875c-.55-.549-.55-1.44 0-1.988zm6.618 14.278h-.71a4.22 4.22 0 0 1-.772 1.333l.357.617a1.406 1.406 0 1 1-2.436 1.407l-.356-.616a4.225 4.225 0 0 1-1.54 0l-.356.616a1.406 1.406 0 1 1-2.436-1.407l.357-.617a4.218 4.218 0 0 1-.772-1.333h-.71a1.406 1.406 0 0 1 0-2.812h.71a4.22 4.22 0 0 1 .772-1.333l-.357-.617a1.406 1.406 0 1 1 2.436-1.407l.355.616a4.226 4.226 0 0 1 1.541 0l.356-.616a1.406 1.406 0 1 1 2.436 1.407l-.357.617c.333.39.597.84.772 1.333h.71a1.406 1.406 0 0 1 0 2.812zM24 39a1.406 1.406 0 1 1 0-2.812A1.406 1.406 0 0 1 24 39zm6.563-4.219a4.223 4.223 0 0 1-4.22-4.218 4.223 4.223 0 0 1 4.22-4.22 4.223 4.223 0 0 1 4.218 4.22 4.223 4.223 0 0 1-4.218 4.218zm0-13.125a4.223 4.223 0 0 1-4.22-4.218 4.223 4.223 0 0 1 4.22-4.22 4.223 4.223 0 0 1 4.218 4.22 4.223 4.223 0 0 1-4.218 4.218z" fill="url(#c)"/><path d="M42.869 23.1c-6.574 5.57-6.574-2.68-2.748-9.665l1.236-1.73a3.617 3.617 0 0 0-.387-4.676 3.617 3.617 0 0 0-4.675-.386l-1.73 1.236a19.315 19.315 0 0 0-6.636-2.748l-.35-2.099A3.618 3.618 0 0 0 24 0a3.618 3.618 0 0 0-3.58 3.032l-.35 2.1a19.313 19.313 0 0 0-6.635 2.747l-1.73-1.236a3.617 3.617 0 0 0-4.676.387 3.617 3.617 0 0 0-.386 4.675l1.236 1.73a19.315 19.315 0 0 0-2.748 6.636l-2.099.35A3.618 3.618 0 0 0 0 24a3.618 3.618 0 0 0 3.032 3.58l2.1.35a19.312 19.312 0 0 0 2.747 6.635l-1.236 1.73a3.617 3.617 0 0 0 .387 4.675 3.618 3.618 0 0 0 4.675.387l1.73-1.236a19.316 19.316 0 0 0 6.636 2.748l.35 2.099A3.618 3.618 0 0 0 24 48a3.618 3.618 0 0 0 3.58-3.032l.35-2.1a19.314 19.314 0 0 0 6.635-2.747l1.73 1.236a3.617 3.617 0 0 0 4.675-.387 3.617 3.617 0 0 0 .387-4.675l-1.236-1.73a19.314 19.314 0 0 0 2.748-6.636l2.099-.35A3.618 3.618 0 0 0 48 24c0-1.781-5.131 2.296-5.131-.9zm-22.15-11.288a1.406 1.406 0 1 1 0 2.813 1.406 1.406 0 0 1 0-2.813zm-6.15 3.694c.548-.55 1.439-.55 1.988 0l1.875 1.875a1.406 1.406 0 1 1-1.989 1.988l-1.875-1.875c-.55-.549-.55-1.44 0-1.988zm6.618 14.278h-.71a4.22 4.22 0 0 1-.772 1.333l.357.617a1.406 1.406 0 1 1-2.436 1.407l-.356-.616a4.225 4.225 0 0 1-1.54 0l-.356.616a1.406 1.406 0 1 1-2.436-1.407l.357-.617a4.218 4.218 0 0 1-.772-1.333h-.71a1.406 1.406 0 0 1 0-2.812h.71a4.22 4.22 0 0 1 .772-1.333l-.357-.617a1.406 1.406 0 1 1 2.436-1.407l.355.616a4.226 4.226 0 0 1 1.541 0l.356-.616a1.406 1.406 0 1 1 2.436 1.407l-.357.617c.333.39.597.84.772 1.333h.71a1.406 1.406 0 0 1 0 2.812zM24 39a1.406 1.406 0 1 1 0-2.812A1.406 1.406 0 0 1 24 39zm6.563-4.219a4.223 4.223 0 0 1-4.22-4.218 4.223 4.223 0 0 1 4.22-4.22 4.223 4.223 0 0 1 4.218 4.22 4.223 4.223 0 0 1-4.218 4.218zm0-13.125a4.223 4.223 0 0 1-4.22-4.218 4.223 4.223 0 0 1 4.22-4.22 4.223 4.223 0 0 1 4.218 4.22 4.223 4.223 0 0 1-4.218 4.218z" fill="#C6CAF7"/><path d="M42.869 23.1c-6.574 5.57-6.574-2.68-2.748-9.665l1.236-1.73a3.617 3.617 0 0 0-.387-4.676 3.617 3.617 0 0 0-4.675-.386l-1.73 1.236a19.315 19.315 0 0 0-6.636-2.748l-.35-2.099A3.618 3.618 0 0 0 24 0a3.618 3.618 0 0 0-3.58 3.032l-.35 2.1a19.313 19.313 0 0 0-6.635 2.747l-1.73-1.236a3.617 3.617 0 0 0-4.676.387 3.617 3.617 0 0 0-.386 4.675l1.236 1.73a19.315 19.315 0 0 0-2.748 6.636l-2.099.35A3.618 3.618 0 0 0 0 24a3.618 3.618 0 0 0 3.032 3.58l2.1.35a19.312 19.312 0 0 0 2.747 6.635l-1.236 1.73a3.617 3.617 0 0 0 .387 4.675 3.618 3.618 0 0 0 4.675.387l1.73-1.236a19.316 19.316 0 0 0 6.636 2.748l.35 2.099A3.618 3.618 0 0 0 24 48a3.618 3.618 0 0 0 3.58-3.032l.35-2.1a19.314 19.314 0 0 0 6.635-2.747l1.73 1.236a3.617 3.617 0 0 0 4.675-.387 3.617 3.617 0 0 0 .387-4.675l-1.236-1.73a19.314 19.314 0 0 0 2.748-6.636l2.099-.35A3.618 3.618 0 0 0 48 24c0-1.781-5.131 2.296-5.131-.9zm-22.15-11.288a1.406 1.406 0 1 1 0 2.813 1.406 1.406 0 0 1 0-2.813zm-6.15 3.694c.548-.55 1.439-.55 1.988 0l1.875 1.875a1.406 1.406 0 1 1-1.989 1.988l-1.875-1.875c-.55-.549-.55-1.44 0-1.988zm6.618 14.278h-.71a4.22 4.22 0 0 1-.772 1.333l.357.617a1.406 1.406 0 1 1-2.436 1.407l-.356-.616a4.225 4.225 0 0 1-1.54 0l-.356.616a1.406 1.406 0 1 1-2.436-1.407l.357-.617a4.218 4.218 0 0 1-.772-1.333h-.71a1.406 1.406 0 0 1 0-2.812h.71a4.22 4.22 0 0 1 .772-1.333l-.357-.617a1.406 1.406 0 1 1 2.436-1.407l.355.616a4.226 4.226 0 0 1 1.541 0l.356-.616a1.406 1.406 0 1 1 2.436 1.407l-.357.617c.333.39.597.84.772 1.333h.71a1.406 1.406 0 0 1 0 2.812zM24 39a1.406 1.406 0 1 1 0-2.812A1.406 1.406 0 0 1 24 39zm6.563-4.219a4.223 4.223 0 0 1-4.22-4.218 4.223 4.223 0 0 1 4.22-4.22 4.223 4.223 0 0 1 4.218 4.22 4.223 4.223 0 0 1-4.218 4.218zm0-13.125a4.223 4.223 0 0 1-4.22-4.218 4.223 4.223 0 0 1 4.22-4.22 4.223 4.223 0 0 1 4.218 4.22 4.223 4.223 0 0 1-4.218 4.218z" fill="url(#d)"/><path d="M16.5 29.784a1.406 1.406 0 1 0 0-2.812 1.406 1.406 0 0 0 0 2.812z" fill="#000"/><path d="M16.5 29.784a1.406 1.406 0 1 0 0-2.812 1.406 1.406 0 0 0 0 2.812z" fill="url(#e)"/><path d="M16.5 29.784a1.406 1.406 0 1 0 0-2.812 1.406 1.406 0 0 0 0 2.812z" fill="#C6CAF7"/><path d="M30.563 31.969a1.406 1.406 0 1 0 0-2.813 1.406 1.406 0 0 0 0 2.813z" fill="#000"/><path d="M30.563 31.969a1.406 1.406 0 1 0 0-2.813 1.406 1.406 0 0 0 0 2.813z" fill="url(#f)"/><path d="M30.563 31.969a1.406 1.406 0 1 0 0-2.813 1.406 1.406 0 0 0 0 2.813z" fill="#C6CAF7"/></g><circle cx="50" cy="15.001" r="8" fill="#D9D9D9"/><circle cx="50" cy="15.001" r="8" fill="url(#g)"/><defs><linearGradient id="b" x1="30.563" y1="16.031" x2="30.563" y2="18.844" gradientUnits="userSpaceOnUse"><stop stop-color="#B4C4FF"/><stop offset="1" stop-color="#FF889D"/></linearGradient><linearGradient id="c" x1="24" y1="0" x2="24" y2="48" gradientUnits="userSpaceOnUse"><stop stop-color="#B4C4FF"/><stop offset="1" stop-color="#FF889D"/></linearGradient><linearGradient id="d" x1="24" y1="0" x2="24" y2="48" gradientUnits="userSpaceOnUse"><stop stop-color="#B4C4FF"/><stop offset="1" stop-color="#FFDBE1"/></linearGradient><linearGradient id="e" x1="16.5" y1="26.972" x2="16.5" y2="29.784" gradientUnits="userSpaceOnUse"><stop stop-color="#B4C4FF"/><stop offset="1" stop-color="#FF889D"/></linearGradient><linearGradient id="f" x1="30.563" y1="29.156" x2="30.563" y2="31.969" gradientUnits="userSpaceOnUse"><stop stop-color="#B4C4FF"/><stop offset="1" stop-color="#FF889D"/></linearGradient><linearGradient id="g" x1="50" y1="7" x2="50" y2="23" gradientUnits="userSpaceOnUse"><stop stop-color="#B4C4FF"/><stop offset="1" stop-color="#FF889D"/></linearGradient><clipPath id="a"><path fill="#fff" d="M0 0h48v48H0z"/></clipPath></defs></svg>