<svg width="43" height="43" fill="none" xmlns="http://www.w3.org/2000/svg"><path d="m42.22 22.832-1.62-.727a6.153 6.153 0 0 0 .066-2.352l1.277-.486a1.238 1.238 0 1 0-.88-2.314l-1.277.485a6.155 6.155 0 0 0-1.612-1.714l1.064-2.373a1.238 1.238 0 1 0-2.258-1.013c-8.344 18.556-4.973 11.078-6.76 15.059a1.238 1.238 0 1 0 2.26 1.014l.726-1.62c.803.182 1.58.197 2.354.069l.484 1.274a1.238 1.238 0 1 0 2.315-.88l-.485-1.274a6.117 6.117 0 0 0 1.714-1.616l1.619.727a1.238 1.238 0 1 0 1.014-2.26zM19.39 27.21c.218.14 1.786.52 2.461 2.296 1.179 3.1-1.996 6.054-4.992 4.709l-.4-.18a3.721 3.721 0 0 1-2.388 3.686 3.716 3.716 0 0 1-4.232-1.17c-.07.11-.419 1.282-1.73 1.994 3.84 5.508 12.262 4.725 15.015-1.407l5.086-11.332-8.595-3.858a3.712 3.712 0 0 1-.224 5.261z" fill="#fff"/><path d="M19.39 27.21c.218.14 1.786.52 2.461 2.296 1.179 3.1-1.996 6.054-4.992 4.709l-.4-.18a3.721 3.721 0 0 1-2.388 3.686 3.716 3.716 0 0 1-4.232-1.17c-.07.11-.419 1.282-1.73 1.994 3.84 5.508 12.262 4.725 15.015-1.407l5.086-11.332-8.595-3.858a3.712 3.712 0 0 1-.224 5.261z" fill="url(#a)"/><path d="M29.953.76c-4.36-1.957-9.498-.002-11.455 4.357L13.82 15.542a3.704 3.704 0 0 1 3.248 2.548l12.157 5.457 5.087-11.333c1.956-4.359.002-9.498-4.358-11.454z" fill="#fff"/><path d="M29.953.76c-4.36-1.957-9.498-.002-11.455 4.357L13.82 15.542a3.704 3.704 0 0 1 3.248 2.548l12.157 5.457 5.087-11.333c1.956-4.359.002-9.498-4.358-11.454z" fill="url(#b)"/><path d="m11.02 33.181.574 1.508a1.238 1.238 0 0 0 2.314-.88l-.573-1.507a6.157 6.157 0 0 0 1.713-1.614l2.825 1.268a1.238 1.238 0 1 0 1.014-2.259l-2.824-1.267a6.117 6.117 0 0 0 .07-2.355l1.195-.454a1.238 1.238 0 1 0-.88-2.315l-1.196.455a6.118 6.118 0 0 0-1.616-1.713l1.03-2.297a1.238 1.238 0 1 0-2.258-1.014l-1.031 2.297a6.119 6.119 0 0 0-2.355-.07l-.601-1.58a1.238 1.238 0 0 0-2.315.88l.602 1.581a6.118 6.118 0 0 0-1.714 1.616l-2.371-1.064a1.238 1.238 0 1 0-1.014 2.259L3.98 25.72a6.118 6.118 0 0 0-.068 2.355l-1.659.63a1.238 1.238 0 1 0 .88 2.315l1.659-.631c.423.671.97 1.252 1.616 1.713l-1.2 2.673a1.238 1.238 0 1 0 2.26 1.014l1.2-2.675c.754.17 1.536.202 2.352.067z" fill="#fff"/><path d="m11.02 33.181.574 1.508a1.238 1.238 0 0 0 2.314-.88l-.573-1.507a6.157 6.157 0 0 0 1.713-1.614l2.825 1.268a1.238 1.238 0 1 0 1.014-2.259l-2.824-1.267a6.117 6.117 0 0 0 .07-2.355l1.195-.454a1.238 1.238 0 1 0-.88-2.315l-1.196.455a6.118 6.118 0 0 0-1.616-1.713l1.03-2.297a1.238 1.238 0 1 0-2.258-1.014l-1.031 2.297a6.119 6.119 0 0 0-2.355-.07l-.601-1.58a1.238 1.238 0 0 0-2.315.88l.602 1.581a6.118 6.118 0 0 0-1.714 1.616l-2.371-1.064a1.238 1.238 0 1 0-1.014 2.259L3.98 25.72a6.118 6.118 0 0 0-.068 2.355l-1.659.63a1.238 1.238 0 1 0 .88 2.315l1.659-.631c.423.671.97 1.252 1.616 1.713l-1.2 2.673a1.238 1.238 0 1 0 2.26 1.014l1.2-2.675c.754.17 1.536.202 2.352.067z" fill="url(#c)"/><circle cx="8" cy="8" r="4" fill="#D9D9D9"/><circle cx="8" cy="8" r="4" fill="url(#d)"/><circle cx="33.5" cy="36.5" r="5.5" fill="#D9D9D9"/><circle cx="33.5" cy="36.5" r="5.5" fill="url(#e)"/><defs><linearGradient id="a" x1="18.16" y1="21.948" x2="18.16" y2="42.245" gradientUnits="userSpaceOnUse"><stop stop-color="#B4C4FF"/><stop offset="1" stop-color="#FFDBE1"/></linearGradient><linearGradient id="b" x1="24.445" y1="0" x2="24.445" y2="23.547" gradientUnits="userSpaceOnUse"><stop stop-color="#B4C4FF"/><stop offset="1" stop-color="#FFDBE1"/></linearGradient><linearGradient id="c" x1="10.248" y1="18.006" x2="10.248" y2="36.52" gradientUnits="userSpaceOnUse"><stop stop-color="#B4C4FF"/><stop offset="1" stop-color="#FFDBE1"/></linearGradient><linearGradient id="d" x1="8" y1="4" x2="8" y2="12" gradientUnits="userSpaceOnUse"><stop stop-color="#B4C4FF"/><stop offset="1" stop-color="#FF889D"/></linearGradient><linearGradient id="e" x1="33.5" y1="31" x2="33.5" y2="42" gradientUnits="userSpaceOnUse"><stop stop-color="#B4C4FF"/><stop offset="1" stop-color="#FF889D"/></linearGradient></defs></svg>