<svg width="55" height="49" fill="none" xmlns="http://www.w3.org/2000/svg"><path d="M19.16 35.75h5.856l2.929-5.072-2.93-5.073H19.16l-2.928 5.073 2.928 5.072z" fill="#fff"/><path d="M19.16 35.75h5.856l2.929-5.072-2.93-5.073H19.16l-2.928 5.073 2.928 5.072z" fill="url(#a)"/><path d="M19.16 22.4h5.856l2.929-5.073-2.93-5.072H19.16l-2.928 5.072 2.928 5.073z" fill="#fff"/><path d="M19.16 22.4h5.856l2.929-5.073-2.93-5.072H19.16l-2.928 5.072 2.928 5.073z" fill="url(#b)"/><path d="m36.618 29.068 2.929-5.073-2.93-5.071h-5.856l-2.927 5.071 2.927 5.073h5.857z" fill="#fff"/><path d="m36.618 29.068 2.929-5.073-2.93-5.071h-5.856l-2.927 5.071 2.927 5.073h5.857z" fill="url(#c)"/><path d="M14.179 7.688c12.204-9.894 30.93-2.549 33.46 12.687l-1.312-1.06-2.024 2.505 5.503 4.447 4.448-5.503-2.505-2.025-.923 1.142C45.798-5.724 10.57-6.95 3.77 18.26l3.128.766c1.09-4.445 3.675-8.472 7.282-11.338z" fill="#fff"/><path d="M14.179 7.688c12.204-9.894 30.93-2.549 33.46 12.687l-1.312-1.06-2.024 2.505 5.503 4.447 4.448-5.503-2.505-2.025-.923 1.142C45.798-5.724 10.57-6.95 3.77 18.26l3.128.766c1.09-4.445 3.675-8.472 7.282-11.338z" fill="url(#d)"/><path d="M40.075 40.318c-12.204 9.894-30.93 2.548-33.46-12.687l1.312 1.06 2.025-2.505-5.504-4.448L0 27.242l2.505 2.024.923-1.141c5.028 25.604 40.256 26.83 47.058 1.62l-3.128-.766c-1.09 4.446-3.676 8.473-7.282 11.339z" fill="#fff"/><path d="M40.075 40.318c-12.204 9.894-30.93 2.548-33.46-12.687l1.312 1.06 2.025-2.505-5.504-4.448L0 27.242l2.505 2.024.923-1.141c5.028 25.604 40.256 26.83 47.058 1.62l-3.128-.766c-1.09 4.446-3.676 8.473-7.282 11.339z" fill="url(#e)"/><defs><linearGradient id="a" x1="22.088" y1="25.605" x2="22.088" y2="35.75" gradientUnits="userSpaceOnUse"><stop stop-color="#B4C4FF"/><stop offset="1" stop-color="#FFDBE1"/></linearGradient><linearGradient id="b" x1="22.088" y1="12.255" x2="22.088" y2="22.4" gradientUnits="userSpaceOnUse"><stop stop-color="#B4C4FF"/><stop offset="1" stop-color="#FFDBE1"/></linearGradient><linearGradient id="c" x1="33.69" y1="18.924" x2="33.69" y2="29.068" gradientUnits="userSpaceOnUse"><stop stop-color="#B4C4FF"/><stop offset="1" stop-color="#FFDBE1"/></linearGradient><linearGradient id="d" x1="29.011" y1="0" x2="29.011" y2="26.267" gradientUnits="userSpaceOnUse"><stop stop-color="#B4C4FF"/><stop offset="1" stop-color="#FFDBE1"/></linearGradient><linearGradient id="e" x1="25.243" y1="21.738" x2="25.243" y2="48.005" gradientUnits="userSpaceOnUse"><stop stop-color="#B4C4FF"/><stop offset="1" stop-color="#FFDBE1"/></linearGradient></defs></svg>