<svg width="64" height="45" fill="none" xmlns="http://www.w3.org/2000/svg"><g clip-path="url(#a)"><path d="M26.371 9.852c.34 0 .615-.263.615-.586 0-.324-.275-.586-.615-.586-.34 0-.615.262-.615.586 0 .323.275.586.615.586z" fill="#000"/><path d="M26.371 9.852c.34 0 .615-.263.615-.586 0-.324-.275-.586-.615-.586-.34 0-.615.262-.615.586 0 .323.275.586.615.586z" fill="url(#b)"/><path d="M26.371 9.852c.34 0 .615-.263.615-.586 0-.324-.275-.586-.615-.586-.34 0-.615.262-.615.586 0 .323.275.586.615.586z" fill="#C6CAF7"/><path d="m32.673 10.509-.918-.146a7.842 7.842 0 0 0-1.202-2.765l.54-.721a1.454 1.454 0 0 0-.168-1.948 1.642 1.642 0 0 0-2.046-.161l-.757.515a8.688 8.688 0 0 0-2.903-1.145l-.153-.875C24.938 2.531 24.279 2 23.5 2c-.78 0-1.438.531-1.566 1.263l-.153.875a8.687 8.687 0 0 0-2.903 1.145l-.757-.515a1.642 1.642 0 0 0-2.046.161 1.454 1.454 0 0 0-.169 1.948l.541.721a7.842 7.842 0 0 0-1.202 2.765l-.918.146C13.557 10.63 13 11.258 13 12c0 .742.558 1.37 1.327 1.491l.918.146a7.842 7.842 0 0 0 1.202 2.765l-.54.721a1.454 1.454 0 0 0 .168 1.948 1.642 1.642 0 0 0 2.046.161l.757-.515c.881.55 1.87.94 2.903 1.145l.153.875c.128.732.787 1.263 1.566 1.263.78 0 1.438-.531 1.566-1.263l.153-.875a8.686 8.686 0 0 0 2.903-1.145l.757.515a1.642 1.642 0 0 0 2.046-.161 1.454 1.454 0 0 0 .169-1.948l-.541-.721a7.842 7.842 0 0 0 1.202-2.765l.918-.146C33.443 13.37 34 12.742 34 12c0-.742-.558-1.37-1.327-1.491zM22.064 6.922c.34 0 .616.262.616.586 0 .323-.276.586-.616.586-.34 0-.615-.263-.615-.586 0-.324.276-.586.615-.586zm-2.69 1.539a.637.637 0 0 1 .87 0l.82.78c.24.23.24.6 0 .83a.63.63 0 0 1-.435.171.629.629 0 0 1-.435-.172l-.82-.78a.566.566 0 0 1 0-.83zm2.896 5.95h-.311a1.74 1.74 0 0 1-.338.554l.156.258a.57.57 0 0 1-.225.8.636.636 0 0 1-.84-.214l-.156-.257a1.939 1.939 0 0 1-.674 0l-.156.257a.635.635 0 0 1-.84.214.57.57 0 0 1-.225-.8l.156-.258a1.742 1.742 0 0 1-.338-.555h-.311c-.34 0-.615-.262-.615-.586 0-.323.275-.586.615-.586h.31a1.74 1.74 0 0 1 .338-.555l-.155-.257a.57.57 0 0 1 .225-.8.632.632 0 0 1 .84.214l.156.256a1.939 1.939 0 0 1 .674 0l.155-.256a.632.632 0 0 1 .84-.215.57.57 0 0 1 .226.8l-.156.258c.146.162.261.35.338.555h.31c.34 0 .616.263.616.586 0 .324-.276.586-.616.586zm1.23 3.839c-.34 0-.615-.262-.615-.586 0-.324.275-.586.615-.586.34 0 .615.262.615.586 0 .324-.275.586-.615.586zm2.871-1.758c-1.018 0-1.846-.788-1.846-1.758 0-.969.828-1.757 1.846-1.757 1.018 0 1.846.788 1.846 1.757 0 .97-.828 1.758-1.846 1.758zm0-5.469c-1.018 0-1.846-.788-1.846-1.757 0-.97.828-1.758 1.846-1.758 1.018 0 1.846.788 1.846 1.758 0 .969-.828 1.757-1.846 1.757z" fill="#000"/><path d="m32.673 10.509-.918-.146a7.842 7.842 0 0 0-1.202-2.765l.54-.721a1.454 1.454 0 0 0-.168-1.948 1.642 1.642 0 0 0-2.046-.161l-.757.515a8.688 8.688 0 0 0-2.903-1.145l-.153-.875C24.938 2.531 24.279 2 23.5 2c-.78 0-1.438.531-1.566 1.263l-.153.875a8.687 8.687 0 0 0-2.903 1.145l-.757-.515a1.642 1.642 0 0 0-2.046.161 1.454 1.454 0 0 0-.169 1.948l.541.721a7.842 7.842 0 0 0-1.202 2.765l-.918.146C13.557 10.63 13 11.258 13 12c0 .742.558 1.37 1.327 1.491l.918.146a7.842 7.842 0 0 0 1.202 2.765l-.54.721a1.454 1.454 0 0 0 .168 1.948 1.642 1.642 0 0 0 2.046.161l.757-.515c.881.55 1.87.94 2.903 1.145l.153.875c.128.732.787 1.263 1.566 1.263.78 0 1.438-.531 1.566-1.263l.153-.875a8.686 8.686 0 0 0 2.903-1.145l.757.515a1.642 1.642 0 0 0 2.046-.161 1.454 1.454 0 0 0 .169-1.948l-.541-.721a7.842 7.842 0 0 0 1.202-2.765l.918-.146C33.443 13.37 34 12.742 34 12c0-.742-.558-1.37-1.327-1.491zM22.064 6.922c.34 0 .616.262.616.586 0 .323-.276.586-.616.586-.34 0-.615-.263-.615-.586 0-.324.276-.586.615-.586zm-2.69 1.539a.637.637 0 0 1 .87 0l.82.78c.24.23.24.6 0 .83a.63.63 0 0 1-.435.171.629.629 0 0 1-.435-.172l-.82-.78a.566.566 0 0 1 0-.83zm2.896 5.95h-.311a1.74 1.74 0 0 1-.338.554l.156.258a.57.57 0 0 1-.225.8.636.636 0 0 1-.84-.214l-.156-.257a1.939 1.939 0 0 1-.674 0l-.156.257a.635.635 0 0 1-.84.214.57.57 0 0 1-.225-.8l.156-.258a1.742 1.742 0 0 1-.338-.555h-.311c-.34 0-.615-.262-.615-.586 0-.323.275-.586.615-.586h.31a1.74 1.74 0 0 1 .338-.555l-.155-.257a.57.57 0 0 1 .225-.8.632.632 0 0 1 .84.214l.156.256a1.939 1.939 0 0 1 .674 0l.155-.256a.632.632 0 0 1 .84-.215.57.57 0 0 1 .226.8l-.156.258c.146.162.261.35.338.555h.31c.34 0 .616.263.616.586 0 .324-.276.586-.616.586zm1.23 3.839c-.34 0-.615-.262-.615-.586 0-.324.275-.586.615-.586.34 0 .615.262.615.586 0 .324-.275.586-.615.586zm2.871-1.758c-1.018 0-1.846-.788-1.846-1.758 0-.969.828-1.757 1.846-1.757 1.018 0 1.846.788 1.846 1.757 0 .97-.828 1.758-1.846 1.758zm0-5.469c-1.018 0-1.846-.788-1.846-1.757 0-.97.828-1.758 1.846-1.758 1.018 0 1.846.788 1.846 1.758 0 .969-.828 1.757-1.846 1.757z" fill="url(#c)"/><path d="m32.673 10.509-.918-.146a7.842 7.842 0 0 0-1.202-2.765l.54-.721a1.454 1.454 0 0 0-.168-1.948 1.642 1.642 0 0 0-2.046-.161l-.757.515a8.688 8.688 0 0 0-2.903-1.145l-.153-.875C24.938 2.531 24.279 2 23.5 2c-.78 0-1.438.531-1.566 1.263l-.153.875a8.687 8.687 0 0 0-2.903 1.145l-.757-.515a1.642 1.642 0 0 0-2.046.161 1.454 1.454 0 0 0-.169 1.948l.541.721a7.842 7.842 0 0 0-1.202 2.765l-.918.146C13.557 10.63 13 11.258 13 12c0 .742.558 1.37 1.327 1.491l.918.146a7.842 7.842 0 0 0 1.202 2.765l-.54.721a1.454 1.454 0 0 0 .168 1.948 1.642 1.642 0 0 0 2.046.161l.757-.515c.881.55 1.87.94 2.903 1.145l.153.875c.128.732.787 1.263 1.566 1.263.78 0 1.438-.531 1.566-1.263l.153-.875a8.686 8.686 0 0 0 2.903-1.145l.757.515a1.642 1.642 0 0 0 2.046-.161 1.454 1.454 0 0 0 .169-1.948l-.541-.721a7.842 7.842 0 0 0 1.202-2.765l.918-.146C33.443 13.37 34 12.742 34 12c0-.742-.558-1.37-1.327-1.491zM22.064 6.922c.34 0 .616.262.616.586 0 .323-.276.586-.616.586-.34 0-.615-.263-.615-.586 0-.324.276-.586.615-.586zm-2.69 1.539a.637.637 0 0 1 .87 0l.82.78c.24.23.24.6 0 .83a.63.63 0 0 1-.435.171.629.629 0 0 1-.435-.172l-.82-.78a.566.566 0 0 1 0-.83zm2.896 5.95h-.311a1.74 1.74 0 0 1-.338.554l.156.258a.57.57 0 0 1-.225.8.636.636 0 0 1-.84-.214l-.156-.257a1.939 1.939 0 0 1-.674 0l-.156.257a.635.635 0 0 1-.84.214.57.57 0 0 1-.225-.8l.156-.258a1.742 1.742 0 0 1-.338-.555h-.311c-.34 0-.615-.262-.615-.586 0-.323.275-.586.615-.586h.31a1.74 1.74 0 0 1 .338-.555l-.155-.257a.57.57 0 0 1 .225-.8.632.632 0 0 1 .84.214l.156.256a1.939 1.939 0 0 1 .674 0l.155-.256a.632.632 0 0 1 .84-.215.57.57 0 0 1 .226.8l-.156.258c.146.162.261.35.338.555h.31c.34 0 .616.263.616.586 0 .324-.276.586-.616.586zm1.23 3.839c-.34 0-.615-.262-.615-.586 0-.324.275-.586.615-.586.34 0 .615.262.615.586 0 .324-.275.586-.615.586zm2.871-1.758c-1.018 0-1.846-.788-1.846-1.758 0-.969.828-1.757 1.846-1.757 1.018 0 1.846.788 1.846 1.757 0 .97-.828 1.758-1.846 1.758zm0-5.469c-1.018 0-1.846-.788-1.846-1.757 0-.97.828-1.758 1.846-1.758 1.018 0 1.846.788 1.846 1.758 0 .969-.828 1.757-1.846 1.757z" fill="#fff"/><path d="m32.673 10.509-.918-.146a7.842 7.842 0 0 0-1.202-2.765l.54-.721a1.454 1.454 0 0 0-.168-1.948 1.642 1.642 0 0 0-2.046-.161l-.757.515a8.688 8.688 0 0 0-2.903-1.145l-.153-.875C24.938 2.531 24.279 2 23.5 2c-.78 0-1.438.531-1.566 1.263l-.153.875a8.687 8.687 0 0 0-2.903 1.145l-.757-.515a1.642 1.642 0 0 0-2.046.161 1.454 1.454 0 0 0-.169 1.948l.541.721a7.842 7.842 0 0 0-1.202 2.765l-.918.146C13.557 10.63 13 11.258 13 12c0 .742.558 1.37 1.327 1.491l.918.146a7.842 7.842 0 0 0 1.202 2.765l-.54.721a1.454 1.454 0 0 0 .168 1.948 1.642 1.642 0 0 0 2.046.161l.757-.515c.881.55 1.87.94 2.903 1.145l.153.875c.128.732.787 1.263 1.566 1.263.78 0 1.438-.531 1.566-1.263l.153-.875a8.686 8.686 0 0 0 2.903-1.145l.757.515a1.642 1.642 0 0 0 2.046-.161 1.454 1.454 0 0 0 .169-1.948l-.541-.721a7.842 7.842 0 0 0 1.202-2.765l.918-.146C33.443 13.37 34 12.742 34 12c0-.742-.558-1.37-1.327-1.491zM22.064 6.922c.34 0 .616.262.616.586 0 .323-.276.586-.616.586-.34 0-.615-.263-.615-.586 0-.324.276-.586.615-.586zm-2.69 1.539a.637.637 0 0 1 .87 0l.82.78c.24.23.24.6 0 .83a.63.63 0 0 1-.435.171.629.629 0 0 1-.435-.172l-.82-.78a.566.566 0 0 1 0-.83zm2.896 5.95h-.311a1.74 1.74 0 0 1-.338.554l.156.258a.57.57 0 0 1-.225.8.636.636 0 0 1-.84-.214l-.156-.257a1.939 1.939 0 0 1-.674 0l-.156.257a.635.635 0 0 1-.84.214.57.57 0 0 1-.225-.8l.156-.258a1.742 1.742 0 0 1-.338-.555h-.311c-.34 0-.615-.262-.615-.586 0-.323.275-.586.615-.586h.31a1.74 1.74 0 0 1 .338-.555l-.155-.257a.57.57 0 0 1 .225-.8.632.632 0 0 1 .84.214l.156.256a1.939 1.939 0 0 1 .674 0l.155-.256a.632.632 0 0 1 .84-.215.57.57 0 0 1 .226.8l-.156.258c.146.162.261.35.338.555h.31c.34 0 .616.263.616.586 0 .324-.276.586-.616.586zm1.23 3.839c-.34 0-.615-.262-.615-.586 0-.324.275-.586.615-.586.34 0 .615.262.615.586 0 .324-.275.586-.615.586zm2.871-1.758c-1.018 0-1.846-.788-1.846-1.758 0-.969.828-1.757 1.846-1.757 1.018 0 1.846.788 1.846 1.757 0 .97-.828 1.758-1.846 1.758zm0-5.469c-1.018 0-1.846-.788-1.846-1.757 0-.97.828-1.758 1.846-1.758 1.018 0 1.846.788 1.846 1.758 0 .969-.828 1.757-1.846 1.757z" fill="url(#d)"/><path d="M20.219 14.41c.34 0 .615-.262.615-.586 0-.323-.276-.586-.615-.586-.34 0-.616.263-.616.586 0 .324.276.586.616.586z" fill="#000"/><path d="M20.219 14.41c.34 0 .615-.262.615-.586 0-.323-.276-.586-.615-.586-.34 0-.616.263-.616.586 0 .324.276.586.616.586z" fill="url(#e)"/><path d="M20.219 14.41c.34 0 .615-.262.615-.586 0-.323-.276-.586-.615-.586-.34 0-.616.263-.616.586 0 .324.276.586.616.586z" fill="#C6CAF7"/><path d="M26.371 15.32c.34 0 .615-.262.615-.586 0-.323-.275-.586-.615-.586-.34 0-.615.263-.615.586 0 .324.275.586.615.586z" fill="#000"/><path d="M26.371 15.32c.34 0 .615-.262.615-.586 0-.323-.275-.586-.615-.586-.34 0-.615.263-.615.586 0 .324.275.586.615.586z" fill="url(#f)"/><path d="M26.371 15.32c.34 0 .615-.262.615-.586 0-.323-.275-.586-.615-.586-.34 0-.615.263-.615.586 0 .324.275.586.615.586z" fill="#C6CAF7"/></g><g clip-path="url(#g)"><path d="M52.375 24.563a.937.937 0 1 0 0-1.875.937.937 0 0 0 0 1.875z" fill="#000"/><path d="M52.375 24.563a.937.937 0 1 0 0-1.875.937.937 0 0 0 0 1.875z" fill="url(#h)"/><path d="M52.375 24.563a.937.937 0 1 0 0-1.875.937.937 0 0 0 0 1.875z" fill="#C6CAF7"/><path d="m61.978 25.614-1.399-.234a12.876 12.876 0 0 0-1.832-4.423l.825-1.154a2.411 2.411 0 0 0-.258-3.117 2.412 2.412 0 0 0-3.117-.258l-1.154.825a12.876 12.876 0 0 0-4.423-1.832l-.234-1.4A2.412 2.412 0 0 0 48 12c-1.188 0-2.191.85-2.386 2.021l-.234 1.4c-1.572.327-3.08.951-4.423 1.832l-1.154-.825a2.412 2.412 0 0 0-3.117.258c-.84.84-.948 2.15-.258 3.117l.825 1.154a12.878 12.878 0 0 0-1.832 4.423l-1.4.234A2.412 2.412 0 0 0 32 28c0 1.188.85 2.191 2.022 2.386l1.399.234c.327 1.572.952 3.08 1.832 4.423l-.825 1.154a2.411 2.411 0 0 0 .258 3.117c.84.84 2.15.948 3.117.258l1.154-.825c1.343.88 2.85 1.505 4.423 1.832l.234 1.4A2.412 2.412 0 0 0 48 44c1.188 0 2.191-.85 2.386-2.022l.234-1.399a12.876 12.876 0 0 0 4.423-1.832l1.154.825c.966.69 2.277.581 3.117-.258.84-.84.948-2.15.258-3.117l-.825-1.154a12.877 12.877 0 0 0 1.832-4.423l1.4-.234A2.412 2.412 0 0 0 64 28c0-1.188-.85-2.191-2.022-2.386zm-16.166-5.739a.938.938 0 1 1 0 1.875.938.938 0 0 1 0-1.875zm-4.1 2.462a.938.938 0 0 1 1.326 0l1.25 1.25a.937.937 0 1 1-1.326 1.326l-1.25-1.25a.937.937 0 0 1 0-1.326zm4.413 9.52h-.474a2.814 2.814 0 0 1-.514.888l.237.411a.937.937 0 1 1-1.623.938l-.237-.41a2.815 2.815 0 0 1-1.028 0l-.237.41a.937.937 0 1 1-1.623-.938l.237-.411a2.812 2.812 0 0 1-.514-.889h-.474a.938.938 0 0 1 0-1.875h.474c.116-.328.292-.629.514-.888l-.237-.412a.937.937 0 1 1 1.623-.937l.237.41a2.824 2.824 0 0 1 1.028 0l.237-.41a.937.937 0 1 1 1.623.937l-.237.412c.222.26.398.56.514.888h.474a.938.938 0 0 1 0 1.875zM48 38a.938.938 0 1 1 0-1.875A.938.938 0 0 1 48 38zm4.375-2.813a2.816 2.816 0 0 1-2.813-2.812 2.816 2.816 0 0 1 2.813-2.813 2.816 2.816 0 0 1 2.813 2.813 2.816 2.816 0 0 1-2.813 2.813zm0-8.75a2.816 2.816 0 0 1-2.813-2.812 2.816 2.816 0 0 1 2.813-2.813 2.816 2.816 0 0 1 2.813 2.813 2.816 2.816 0 0 1-2.813 2.813z" fill="#000"/><path d="m61.978 25.614-1.399-.234a12.876 12.876 0 0 0-1.832-4.423l.825-1.154a2.411 2.411 0 0 0-.258-3.117 2.412 2.412 0 0 0-3.117-.258l-1.154.825a12.876 12.876 0 0 0-4.423-1.832l-.234-1.4A2.412 2.412 0 0 0 48 12c-1.188 0-2.191.85-2.386 2.021l-.234 1.4c-1.572.327-3.08.951-4.423 1.832l-1.154-.825a2.412 2.412 0 0 0-3.117.258c-.84.84-.948 2.15-.258 3.117l.825 1.154a12.878 12.878 0 0 0-1.832 4.423l-1.4.234A2.412 2.412 0 0 0 32 28c0 1.188.85 2.191 2.022 2.386l1.399.234c.327 1.572.952 3.08 1.832 4.423l-.825 1.154a2.411 2.411 0 0 0 .258 3.117c.84.84 2.15.948 3.117.258l1.154-.825c1.343.88 2.85 1.505 4.423 1.832l.234 1.4A2.412 2.412 0 0 0 48 44c1.188 0 2.191-.85 2.386-2.022l.234-1.399a12.876 12.876 0 0 0 4.423-1.832l1.154.825c.966.69 2.277.581 3.117-.258.84-.84.948-2.15.258-3.117l-.825-1.154a12.877 12.877 0 0 0 1.832-4.423l1.4-.234A2.412 2.412 0 0 0 64 28c0-1.188-.85-2.191-2.022-2.386zm-16.166-5.739a.938.938 0 1 1 0 1.875.938.938 0 0 1 0-1.875zm-4.1 2.462a.938.938 0 0 1 1.326 0l1.25 1.25a.937.937 0 1 1-1.326 1.326l-1.25-1.25a.937.937 0 0 1 0-1.326zm4.413 9.52h-.474a2.814 2.814 0 0 1-.514.888l.237.411a.937.937 0 1 1-1.623.938l-.237-.41a2.815 2.815 0 0 1-1.028 0l-.237.41a.937.937 0 1 1-1.623-.938l.237-.411a2.812 2.812 0 0 1-.514-.889h-.474a.938.938 0 0 1 0-1.875h.474c.116-.328.292-.629.514-.888l-.237-.412a.937.937 0 1 1 1.623-.937l.237.41a2.824 2.824 0 0 1 1.028 0l.237-.41a.937.937 0 1 1 1.623.937l-.237.412c.222.26.398.56.514.888h.474a.938.938 0 0 1 0 1.875zM48 38a.938.938 0 1 1 0-1.875A.938.938 0 0 1 48 38zm4.375-2.813a2.816 2.816 0 0 1-2.813-2.812 2.816 2.816 0 0 1 2.813-2.813 2.816 2.816 0 0 1 2.813 2.813 2.816 2.816 0 0 1-2.813 2.813zm0-8.75a2.816 2.816 0 0 1-2.813-2.812 2.816 2.816 0 0 1 2.813-2.813 2.816 2.816 0 0 1 2.813 2.813 2.816 2.816 0 0 1-2.813 2.813z" fill="url(#i)"/><path d="m61.978 25.614-1.399-.234a12.876 12.876 0 0 0-1.832-4.423l.825-1.154a2.411 2.411 0 0 0-.258-3.117 2.412 2.412 0 0 0-3.117-.258l-1.154.825a12.876 12.876 0 0 0-4.423-1.832l-.234-1.4A2.412 2.412 0 0 0 48 12c-1.188 0-2.191.85-2.386 2.021l-.234 1.4c-1.572.327-3.08.951-4.423 1.832l-1.154-.825a2.412 2.412 0 0 0-3.117.258c-.84.84-.948 2.15-.258 3.117l.825 1.154a12.878 12.878 0 0 0-1.832 4.423l-1.4.234A2.412 2.412 0 0 0 32 28c0 1.188.85 2.191 2.022 2.386l1.399.234c.327 1.572.952 3.08 1.832 4.423l-.825 1.154a2.411 2.411 0 0 0 .258 3.117c.84.84 2.15.948 3.117.258l1.154-.825c1.343.88 2.85 1.505 4.423 1.832l.234 1.4A2.412 2.412 0 0 0 48 44c1.188 0 2.191-.85 2.386-2.022l.234-1.399a12.876 12.876 0 0 0 4.423-1.832l1.154.825c.966.69 2.277.581 3.117-.258.84-.84.948-2.15.258-3.117l-.825-1.154a12.877 12.877 0 0 0 1.832-4.423l1.4-.234A2.412 2.412 0 0 0 64 28c0-1.188-.85-2.191-2.022-2.386zm-16.166-5.739a.938.938 0 1 1 0 1.875.938.938 0 0 1 0-1.875zm-4.1 2.462a.938.938 0 0 1 1.326 0l1.25 1.25a.937.937 0 1 1-1.326 1.326l-1.25-1.25a.937.937 0 0 1 0-1.326zm4.413 9.52h-.474a2.814 2.814 0 0 1-.514.888l.237.411a.937.937 0 1 1-1.623.938l-.237-.41a2.815 2.815 0 0 1-1.028 0l-.237.41a.937.937 0 1 1-1.623-.938l.237-.411a2.812 2.812 0 0 1-.514-.889h-.474a.938.938 0 0 1 0-1.875h.474c.116-.328.292-.629.514-.888l-.237-.412a.937.937 0 1 1 1.623-.937l.237.41a2.824 2.824 0 0 1 1.028 0l.237-.41a.937.937 0 1 1 1.623.937l-.237.412c.222.26.398.56.514.888h.474a.938.938 0 0 1 0 1.875zM48 38a.938.938 0 1 1 0-1.875A.938.938 0 0 1 48 38zm4.375-2.813a2.816 2.816 0 0 1-2.813-2.812 2.816 2.816 0 0 1 2.813-2.813 2.816 2.816 0 0 1 2.813 2.813 2.816 2.816 0 0 1-2.813 2.813zm0-8.75a2.816 2.816 0 0 1-2.813-2.812 2.816 2.816 0 0 1 2.813-2.813 2.816 2.816 0 0 1 2.813 2.813 2.816 2.816 0 0 1-2.813 2.813z" fill="#fff"/><path d="m61.978 25.614-1.399-.234a12.876 12.876 0 0 0-1.832-4.423l.825-1.154a2.411 2.411 0 0 0-.258-3.117 2.412 2.412 0 0 0-3.117-.258l-1.154.825a12.876 12.876 0 0 0-4.423-1.832l-.234-1.4A2.412 2.412 0 0 0 48 12c-1.188 0-2.191.85-2.386 2.021l-.234 1.4c-1.572.327-3.08.951-4.423 1.832l-1.154-.825a2.412 2.412 0 0 0-3.117.258c-.84.84-.948 2.15-.258 3.117l.825 1.154a12.878 12.878 0 0 0-1.832 4.423l-1.4.234A2.412 2.412 0 0 0 32 28c0 1.188.85 2.191 2.022 2.386l1.399.234c.327 1.572.952 3.08 1.832 4.423l-.825 1.154a2.411 2.411 0 0 0 .258 3.117c.84.84 2.15.948 3.117.258l1.154-.825c1.343.88 2.85 1.505 4.423 1.832l.234 1.4A2.412 2.412 0 0 0 48 44c1.188 0 2.191-.85 2.386-2.022l.234-1.399a12.876 12.876 0 0 0 4.423-1.832l1.154.825c.966.69 2.277.581 3.117-.258.84-.84.948-2.15.258-3.117l-.825-1.154a12.877 12.877 0 0 0 1.832-4.423l1.4-.234A2.412 2.412 0 0 0 64 28c0-1.188-.85-2.191-2.022-2.386zm-16.166-5.739a.938.938 0 1 1 0 1.875.938.938 0 0 1 0-1.875zm-4.1 2.462a.938.938 0 0 1 1.326 0l1.25 1.25a.937.937 0 1 1-1.326 1.326l-1.25-1.25a.937.937 0 0 1 0-1.326zm4.413 9.52h-.474a2.814 2.814 0 0 1-.514.888l.237.411a.937.937 0 1 1-1.623.938l-.237-.41a2.815 2.815 0 0 1-1.028 0l-.237.41a.937.937 0 1 1-1.623-.938l.237-.411a2.812 2.812 0 0 1-.514-.889h-.474a.938.938 0 0 1 0-1.875h.474c.116-.328.292-.629.514-.888l-.237-.412a.937.937 0 1 1 1.623-.937l.237.41a2.824 2.824 0 0 1 1.028 0l.237-.41a.937.937 0 1 1 1.623.937l-.237.412c.222.26.398.56.514.888h.474a.938.938 0 0 1 0 1.875zM48 38a.938.938 0 1 1 0-1.875A.938.938 0 0 1 48 38zm4.375-2.813a2.816 2.816 0 0 1-2.813-2.812 2.816 2.816 0 0 1 2.813-2.813 2.816 2.816 0 0 1 2.813 2.813 2.816 2.816 0 0 1-2.813 2.813zm0-8.75a2.816 2.816 0 0 1-2.813-2.812 2.816 2.816 0 0 1 2.813-2.813 2.816 2.816 0 0 1 2.813 2.813 2.816 2.816 0 0 1-2.813 2.813z" fill="url(#j)"/><path d="M43 31.856a.937.937 0 1 0 0-1.875.937.937 0 0 0 0 1.875z" fill="#000"/><path d="M43 31.856a.937.937 0 1 0 0-1.875.937.937 0 0 0 0 1.875z" fill="url(#k)"/><path d="M43 31.856a.937.937 0 1 0 0-1.875.937.937 0 0 0 0 1.875z" fill="#C6CAF7"/><path d="M52.375 33.313a.937.937 0 1 0 0-1.875.937.937 0 0 0 0 1.875z" fill="#000"/><path d="M52.375 33.313a.937.937 0 1 0 0-1.875.937.937 0 0 0 0 1.875z" fill="url(#l)"/><path d="M52.375 33.313a.937.937 0 1 0 0-1.875.937.937 0 0 0 0 1.875z" fill="#C6CAF7"/></g><g clip-path="url(#m)"><path d="M13.371 32.244a.615.615 0 1 0 0-1.23.615.615 0 0 0 0 1.23z" fill="#000"/><path d="M13.371 32.244a.615.615 0 1 0 0-1.23.615.615 0 0 0 0 1.23z" fill="url(#n)"/><path d="M13.371 32.244a.615.615 0 1 0 0-1.23.615.615 0 0 0 0 1.23z" fill="#C6CAF7"/><path d="m19.673 32.934-.918-.153a8.45 8.45 0 0 0-1.202-2.903l.54-.757a1.583 1.583 0 0 0-.168-2.046 1.583 1.583 0 0 0-2.046-.169l-.757.541a8.45 8.45 0 0 0-2.903-1.202l-.153-.918A1.583 1.583 0 0 0 10.5 24c-.78 0-1.438.558-1.566 1.327l-.153.918a8.448 8.448 0 0 0-2.903 1.202l-.757-.54a1.583 1.583 0 0 0-2.046.168 1.583 1.583 0 0 0-.169 2.046l.541.757a8.45 8.45 0 0 0-1.202 2.903l-.918.153A1.583 1.583 0 0 0 0 34.5c0 .78.558 1.438 1.327 1.566l.918.153a8.45 8.45 0 0 0 1.202 2.903l-.54.757a1.583 1.583 0 0 0 .168 2.046 1.583 1.583 0 0 0 2.046.169l.757-.541a8.45 8.45 0 0 0 2.903 1.202l.153.918A1.583 1.583 0 0 0 10.5 45c.78 0 1.438-.558 1.566-1.327l.153-.918a8.45 8.45 0 0 0 2.903-1.202l.757.54a1.583 1.583 0 0 0 2.046-.168 1.583 1.583 0 0 0 .169-2.046l-.541-.757a8.45 8.45 0 0 0 1.202-2.903l.918-.153A1.583 1.583 0 0 0 21 34.5c0-.78-.558-1.438-1.327-1.566zM9.064 29.168a.615.615 0 1 1 0 1.23.615.615 0 0 1 0-1.23zm-2.69 1.616c.24-.24.63-.24.87 0l.82.82a.615.615 0 1 1-.87.87l-.82-.82a.615.615 0 0 1 0-.87zM9.27 37.03h-.311a1.846 1.846 0 0 1-.338.583l.156.27a.615.615 0 1 1-1.066.615l-.155-.27a1.854 1.854 0 0 1-.674 0l-.156.27a.615.615 0 1 1-1.065-.615l.156-.27a1.845 1.845 0 0 1-.338-.583h-.311a.615.615 0 0 1 0-1.23h.31c.077-.216.193-.413.339-.584l-.156-.27a.615.615 0 1 1 1.065-.615l.156.269a1.854 1.854 0 0 1 .674 0l.155-.27a.615.615 0 1 1 1.066.616l-.156.27c.146.17.261.368.338.583h.31a.615.615 0 0 1 0 1.23zm1.23 4.032a.615.615 0 1 1 0-1.231.615.615 0 0 1 0 1.23zm2.871-1.846a1.848 1.848 0 0 1-1.846-1.846c0-1.018.828-1.846 1.846-1.846 1.018 0 1.846.828 1.846 1.846a1.848 1.848 0 0 1-1.846 1.846zm0-5.742a1.848 1.848 0 0 1-1.846-1.846c0-1.018.828-1.846 1.846-1.846 1.018 0 1.846.828 1.846 1.846a1.848 1.848 0 0 1-1.846 1.846z" fill="#000"/><path d="m19.673 32.934-.918-.153a8.45 8.45 0 0 0-1.202-2.903l.54-.757a1.583 1.583 0 0 0-.168-2.046 1.583 1.583 0 0 0-2.046-.169l-.757.541a8.45 8.45 0 0 0-2.903-1.202l-.153-.918A1.583 1.583 0 0 0 10.5 24c-.78 0-1.438.558-1.566 1.327l-.153.918a8.448 8.448 0 0 0-2.903 1.202l-.757-.54a1.583 1.583 0 0 0-2.046.168 1.583 1.583 0 0 0-.169 2.046l.541.757a8.45 8.45 0 0 0-1.202 2.903l-.918.153A1.583 1.583 0 0 0 0 34.5c0 .78.558 1.438 1.327 1.566l.918.153a8.45 8.45 0 0 0 1.202 2.903l-.54.757a1.583 1.583 0 0 0 .168 2.046 1.583 1.583 0 0 0 2.046.169l.757-.541a8.45 8.45 0 0 0 2.903 1.202l.153.918A1.583 1.583 0 0 0 10.5 45c.78 0 1.438-.558 1.566-1.327l.153-.918a8.45 8.45 0 0 0 2.903-1.202l.757.54a1.583 1.583 0 0 0 2.046-.168 1.583 1.583 0 0 0 .169-2.046l-.541-.757a8.45 8.45 0 0 0 1.202-2.903l.918-.153A1.583 1.583 0 0 0 21 34.5c0-.78-.558-1.438-1.327-1.566zM9.064 29.168a.615.615 0 1 1 0 1.23.615.615 0 0 1 0-1.23zm-2.69 1.616c.24-.24.63-.24.87 0l.82.82a.615.615 0 1 1-.87.87l-.82-.82a.615.615 0 0 1 0-.87zM9.27 37.03h-.311a1.846 1.846 0 0 1-.338.583l.156.27a.615.615 0 1 1-1.066.615l-.155-.27a1.854 1.854 0 0 1-.674 0l-.156.27a.615.615 0 1 1-1.065-.615l.156-.27a1.845 1.845 0 0 1-.338-.583h-.311a.615.615 0 0 1 0-1.23h.31c.077-.216.193-.413.339-.584l-.156-.27a.615.615 0 1 1 1.065-.615l.156.269a1.854 1.854 0 0 1 .674 0l.155-.27a.615.615 0 1 1 1.066.616l-.156.27c.146.17.261.368.338.583h.31a.615.615 0 0 1 0 1.23zm1.23 4.032a.615.615 0 1 1 0-1.231.615.615 0 0 1 0 1.23zm2.871-1.846a1.848 1.848 0 0 1-1.846-1.846c0-1.018.828-1.846 1.846-1.846 1.018 0 1.846.828 1.846 1.846a1.848 1.848 0 0 1-1.846 1.846zm0-5.742a1.848 1.848 0 0 1-1.846-1.846c0-1.018.828-1.846 1.846-1.846 1.018 0 1.846.828 1.846 1.846a1.848 1.848 0 0 1-1.846 1.846z" fill="url(#o)"/><path d="m19.673 32.934-.918-.153a8.45 8.45 0 0 0-1.202-2.903l.54-.757a1.583 1.583 0 0 0-.168-2.046 1.583 1.583 0 0 0-2.046-.169l-.757.541a8.45 8.45 0 0 0-2.903-1.202l-.153-.918A1.583 1.583 0 0 0 10.5 24c-.78 0-1.438.558-1.566 1.327l-.153.918a8.448 8.448 0 0 0-2.903 1.202l-.757-.54a1.583 1.583 0 0 0-2.046.168 1.583 1.583 0 0 0-.169 2.046l.541.757a8.45 8.45 0 0 0-1.202 2.903l-.918.153A1.583 1.583 0 0 0 0 34.5c0 .78.558 1.438 1.327 1.566l.918.153a8.45 8.45 0 0 0 1.202 2.903l-.54.757a1.583 1.583 0 0 0 .168 2.046 1.583 1.583 0 0 0 2.046.169l.757-.541a8.45 8.45 0 0 0 2.903 1.202l.153.918A1.583 1.583 0 0 0 10.5 45c.78 0 1.438-.558 1.566-1.327l.153-.918a8.45 8.45 0 0 0 2.903-1.202l.757.54a1.583 1.583 0 0 0 2.046-.168 1.583 1.583 0 0 0 .169-2.046l-.541-.757a8.45 8.45 0 0 0 1.202-2.903l.918-.153A1.583 1.583 0 0 0 21 34.5c0-.78-.558-1.438-1.327-1.566zM9.064 29.168a.615.615 0 1 1 0 1.23.615.615 0 0 1 0-1.23zm-2.69 1.616c.24-.24.63-.24.87 0l.82.82a.615.615 0 1 1-.87.87l-.82-.82a.615.615 0 0 1 0-.87zM9.27 37.03h-.311a1.846 1.846 0 0 1-.338.583l.156.27a.615.615 0 1 1-1.066.615l-.155-.27a1.854 1.854 0 0 1-.674 0l-.156.27a.615.615 0 1 1-1.065-.615l.156-.27a1.845 1.845 0 0 1-.338-.583h-.311a.615.615 0 0 1 0-1.23h.31c.077-.216.193-.413.339-.584l-.156-.27a.615.615 0 1 1 1.065-.615l.156.269a1.854 1.854 0 0 1 .674 0l.155-.27a.615.615 0 1 1 1.066.616l-.156.27c.146.17.261.368.338.583h.31a.615.615 0 0 1 0 1.23zm1.23 4.032a.615.615 0 1 1 0-1.231.615.615 0 0 1 0 1.23zm2.871-1.846a1.848 1.848 0 0 1-1.846-1.846c0-1.018.828-1.846 1.846-1.846 1.018 0 1.846.828 1.846 1.846a1.848 1.848 0 0 1-1.846 1.846zm0-5.742a1.848 1.848 0 0 1-1.846-1.846c0-1.018.828-1.846 1.846-1.846 1.018 0 1.846.828 1.846 1.846a1.848 1.848 0 0 1-1.846 1.846z" fill="#fff"/><path d="m19.673 32.934-.918-.153a8.45 8.45 0 0 0-1.202-2.903l.54-.757a1.583 1.583 0 0 0-.168-2.046 1.583 1.583 0 0 0-2.046-.169l-.757.541a8.45 8.45 0 0 0-2.903-1.202l-.153-.918A1.583 1.583 0 0 0 10.5 24c-.78 0-1.438.558-1.566 1.327l-.153.918a8.448 8.448 0 0 0-2.903 1.202l-.757-.54a1.583 1.583 0 0 0-2.046.168 1.583 1.583 0 0 0-.169 2.046l.541.757a8.45 8.45 0 0 0-1.202 2.903l-.918.153A1.583 1.583 0 0 0 0 34.5c0 .78.558 1.438 1.327 1.566l.918.153a8.45 8.45 0 0 0 1.202 2.903l-.54.757a1.583 1.583 0 0 0 .168 2.046 1.583 1.583 0 0 0 2.046.169l.757-.541a8.45 8.45 0 0 0 2.903 1.202l.153.918A1.583 1.583 0 0 0 10.5 45c.78 0 1.438-.558 1.566-1.327l.153-.918a8.45 8.45 0 0 0 2.903-1.202l.757.54a1.583 1.583 0 0 0 2.046-.168 1.583 1.583 0 0 0 .169-2.046l-.541-.757a8.45 8.45 0 0 0 1.202-2.903l.918-.153A1.583 1.583 0 0 0 21 34.5c0-.78-.558-1.438-1.327-1.566zM9.064 29.168a.615.615 0 1 1 0 1.23.615.615 0 0 1 0-1.23zm-2.69 1.616c.24-.24.63-.24.87 0l.82.82a.615.615 0 1 1-.87.87l-.82-.82a.615.615 0 0 1 0-.87zM9.27 37.03h-.311a1.846 1.846 0 0 1-.338.583l.156.27a.615.615 0 1 1-1.066.615l-.155-.27a1.854 1.854 0 0 1-.674 0l-.156.27a.615.615 0 1 1-1.065-.615l.156-.27a1.845 1.845 0 0 1-.338-.583h-.311a.615.615 0 0 1 0-1.23h.31c.077-.216.193-.413.339-.584l-.156-.27a.615.615 0 1 1 1.065-.615l.156.269a1.854 1.854 0 0 1 .674 0l.155-.27a.615.615 0 1 1 1.066.616l-.156.27c.146.17.261.368.338.583h.31a.615.615 0 0 1 0 1.23zm1.23 4.032a.615.615 0 1 1 0-1.231.615.615 0 0 1 0 1.23zm2.871-1.846a1.848 1.848 0 0 1-1.846-1.846c0-1.018.828-1.846 1.846-1.846 1.018 0 1.846.828 1.846 1.846a1.848 1.848 0 0 1-1.846 1.846zm0-5.742a1.848 1.848 0 0 1-1.846-1.846c0-1.018.828-1.846 1.846-1.846 1.018 0 1.846.828 1.846 1.846a1.848 1.848 0 0 1-1.846 1.846z" fill="url(#p)"/><path d="M7.219 37.03a.615.615 0 1 0 0-1.23.615.615 0 0 0 0 1.23z" fill="#000"/><path d="M7.219 37.03a.615.615 0 1 0 0-1.23.615.615 0 0 0 0 1.23z" fill="url(#q)"/><path d="M7.219 37.03a.615.615 0 1 0 0-1.23.615.615 0 0 0 0 1.23z" fill="#C6CAF7"/><path d="M13.371 37.986a.615.615 0 1 0 0-1.23.615.615 0 0 0 0 1.23z" fill="#000"/><path d="M13.371 37.986a.615.615 0 1 0 0-1.23.615.615 0 0 0 0 1.23z" fill="url(#r)"/><path d="M13.371 37.986a.615.615 0 1 0 0-1.23.615.615 0 0 0 0 1.23z" fill="#C6CAF7"/></g><circle cx="28" cy="39" r="5" fill="#D9D9D9"/><circle cx="28" cy="39" r="5" fill="url(#s)"/><circle cx="41.5" cy="6.5" r="6.5" fill="#D9D9D9"/><circle cx="41.5" cy="6.5" r="6.5" fill="url(#t)"/><ellipse cx="5" cy="16.5" rx="5" ry="4.5" fill="#D9D9D9"/><ellipse cx="5" cy="16.5" rx="5" ry="4.5" fill="url(#u)"/><defs><linearGradient id="b" x1="26.371" y1="8.68" x2="26.371" y2="9.852" gradientUnits="userSpaceOnUse"><stop stop-color="#B4C4FF"/><stop offset="1" stop-color="#FF889D"/></linearGradient><linearGradient id="c" x1="23.5" y1="2" x2="23.5" y2="22" gradientUnits="userSpaceOnUse"><stop stop-color="#B4C4FF"/><stop offset="1" stop-color="#FF889D"/></linearGradient><linearGradient id="d" x1="23.5" y1="2" x2="23.5" y2="22" gradientUnits="userSpaceOnUse"><stop stop-color="#B4C4FF"/><stop offset="1" stop-color="#FFDBE1"/></linearGradient><linearGradient id="e" x1="20.219" y1="13.238" x2="20.219" y2="14.41" gradientUnits="userSpaceOnUse"><stop stop-color="#B4C4FF"/><stop offset="1" stop-color="#FF889D"/></linearGradient><linearGradient id="f" x1="26.371" y1="14.148" x2="26.371" y2="15.32" gradientUnits="userSpaceOnUse"><stop stop-color="#B4C4FF"/><stop offset="1" stop-color="#FF889D"/></linearGradient><linearGradient id="h" x1="52.375" y1="22.688" x2="52.375" y2="24.563" gradientUnits="userSpaceOnUse"><stop stop-color="#B4C4FF"/><stop offset="1" stop-color="#FF889D"/></linearGradient><linearGradient id="i" x1="48" y1="12" x2="48" y2="44" gradientUnits="userSpaceOnUse"><stop stop-color="#B4C4FF"/><stop offset="1" stop-color="#FF889D"/></linearGradient><linearGradient id="j" x1="48" y1="12" x2="48" y2="44" gradientUnits="userSpaceOnUse"><stop stop-color="#B4C4FF"/><stop offset="1" stop-color="#FFDBE1"/></linearGradient><linearGradient id="k" x1="43" y1="29.981" x2="43" y2="31.856" gradientUnits="userSpaceOnUse"><stop stop-color="#B4C4FF"/><stop offset="1" stop-color="#FF889D"/></linearGradient><linearGradient id="l" x1="52.375" y1="31.438" x2="52.375" y2="33.313" gradientUnits="userSpaceOnUse"><stop stop-color="#B4C4FF"/><stop offset="1" stop-color="#FF889D"/></linearGradient><linearGradient id="n" x1="13.371" y1="31.014" x2="13.371" y2="32.244" gradientUnits="userSpaceOnUse"><stop stop-color="#B4C4FF"/><stop offset="1" stop-color="#FF889D"/></linearGradient><linearGradient id="o" x1="10.5" y1="24" x2="10.5" y2="45" gradientUnits="userSpaceOnUse"><stop stop-color="#B4C4FF"/><stop offset="1" stop-color="#FF889D"/></linearGradient><linearGradient id="p" x1="10.5" y1="24" x2="10.5" y2="45" gradientUnits="userSpaceOnUse"><stop stop-color="#B4C4FF"/><stop offset="1" stop-color="#FFDBE1"/></linearGradient><linearGradient id="q" x1="7.219" y1="35.8" x2="7.219" y2="37.031" gradientUnits="userSpaceOnUse"><stop stop-color="#B4C4FF"/><stop offset="1" stop-color="#FF889D"/></linearGradient><linearGradient id="r" x1="13.371" y1="36.756" x2="13.371" y2="37.986" gradientUnits="userSpaceOnUse"><stop stop-color="#B4C4FF"/><stop offset="1" stop-color="#FF889D"/></linearGradient><linearGradient id="s" x1="28" y1="34" x2="28" y2="44" gradientUnits="userSpaceOnUse"><stop stop-color="#B4C4FF"/><stop offset="1" stop-color="#FF889D"/></linearGradient><linearGradient id="t" x1="41.5" y1="0" x2="41.5" y2="13" gradientUnits="userSpaceOnUse"><stop stop-color="#B4C4FF"/><stop offset="1" stop-color="#FF889D"/></linearGradient><linearGradient id="u" x1="5" y1="12" x2="5" y2="21" gradientUnits="userSpaceOnUse"><stop stop-color="#B4C4FF"/><stop offset="1" stop-color="#FF889D"/></linearGradient><clipPath id="a"><path fill="#fff" transform="translate(13 2)" d="M0 0h21v20H0z"/></clipPath><clipPath id="g"><path fill="#fff" transform="translate(32 12)" d="M0 0h32v32H0z"/></clipPath><clipPath id="m"><path fill="#fff" transform="translate(0 24)" d="M0 0h21v21H0z"/></clipPath></defs></svg>