<svg width="54" height="52" fill="none" xmlns="http://www.w3.org/2000/svg"><circle cx="47" cy="9" r="7" fill="#D9D9D9"/><circle cx="47" cy="9" r="7" fill="url(#a)"/><g clip-path="url(#b)"><path d="M26 16.352c-4.2 0-7.617 3.417-7.617 7.617S21.8 31.586 26 31.586s7.617-3.417 7.617-7.617S30.2 16.352 26 16.352zm-1.877 10.46a1.523 1.523 0 1 1-1.523-2.64 1.523 1.523 0 0 1 1.523 2.64zM26 22.444a1.523 1.523 0 1 1 0-3.047 1.523 1.523 0 0 1 0 3.047zm3.958 3.809a1.523 1.523 0 1 1-2.639-1.523 1.523 1.523 0 0 1 2.639 1.523z" fill="#fff"/><path d="M26 16.352c-4.2 0-7.617 3.417-7.617 7.617S21.8 31.586 26 31.586s7.617-3.417 7.617-7.617S30.2 16.352 26 16.352zm-1.877 10.46a1.523 1.523 0 1 1-1.523-2.64 1.523 1.523 0 0 1 1.523 2.64zM26 22.444a1.523 1.523 0 1 1 0-3.047 1.523 1.523 0 0 1 0 3.047zm3.958 3.809a1.523 1.523 0 1 1-2.639-1.523 1.523 1.523 0 0 1 2.639 1.523z" fill="url(#c)"/><path d="M41.742 3.5 26.503.086a1.523 1.523 0 0 0-1.006 0L5.184 7.195c-.61.214-1.02.79-1.02 1.438v13.213c0 13.52 8.573 25.603 21.333 30.068a1.52 1.52 0 0 0 1.006 0c12.76-4.465 21.333-16.549 21.333-30.068v-5.418C43.5 23.227 31.48 3.5 41.742 3.5zm0 22.5a1.523 1.523 0 1 1-3.047 0v-.508h-2.14a10.61 10.61 0 0 1-2.017 4.86l1.516 1.517.36-.36a1.523 1.523 0 1 1 2.154 2.155l-2.873 2.872a1.523 1.523 0 1 1-2.154-2.154l.359-.36-1.517-1.516a10.611 10.611 0 0 1-4.86 2.017v2.141h.508a1.523 1.523 0 0 1 0 3.047H23.97a1.524 1.524 0 0 1 0-3.047h.508v-2.14a10.61 10.61 0 0 1-4.86-2.018L18.1 34.023l.36.36a1.523 1.523 0 0 1-2.155 2.153l-2.873-2.872a1.523 1.523 0 1 1 2.155-2.155l.359.36 1.517-1.517a10.611 10.611 0 0 1-2.018-4.86h-2.14V26a1.524 1.524 0 0 1-3.047 0v-4.062a1.523 1.523 0 0 1 3.047 0v.507h2.14a10.61 10.61 0 0 1 2.017-4.86l-1.516-1.516-.36.36a1.523 1.523 0 0 1-2.154-2.155l2.873-2.873a1.524 1.524 0 0 1 2.154 2.155l-.359.359 1.517 1.516a10.611 10.611 0 0 1 4.86-2.017v-2.14h-.508a1.523 1.523 0 0 1 0-3.047h4.062a1.523 1.523 0 1 1 0 3.046h-.508v2.141c1.804.26 3.464.97 4.86 2.017l1.517-1.516-.36-.36a1.524 1.524 0 0 1 2.155-2.154l2.873 2.873a1.523 1.523 0 1 1-2.155 2.154l-.359-.36-1.517 1.518a10.61 10.61 0 0 1 2.018 4.86h2.14v-.509a1.523 1.523 0 0 1 3.047 0V26z" fill="#fff"/><path d="M41.742 3.5 26.503.086a1.523 1.523 0 0 0-1.006 0L5.184 7.195c-.61.214-1.02.79-1.02 1.438v13.213c0 13.52 8.573 25.603 21.333 30.068a1.52 1.52 0 0 0 1.006 0c12.76-4.465 21.333-16.549 21.333-30.068v-5.418C43.5 23.227 31.48 3.5 41.742 3.5zm0 22.5a1.523 1.523 0 1 1-3.047 0v-.508h-2.14a10.61 10.61 0 0 1-2.017 4.86l1.516 1.517.36-.36a1.523 1.523 0 1 1 2.154 2.155l-2.873 2.872a1.523 1.523 0 1 1-2.154-2.154l.359-.36-1.517-1.516a10.611 10.611 0 0 1-4.86 2.017v2.141h.508a1.523 1.523 0 0 1 0 3.047H23.97a1.524 1.524 0 0 1 0-3.047h.508v-2.14a10.61 10.61 0 0 1-4.86-2.018L18.1 34.023l.36.36a1.523 1.523 0 0 1-2.155 2.153l-2.873-2.872a1.523 1.523 0 1 1 2.155-2.155l.359.36 1.517-1.517a10.611 10.611 0 0 1-2.018-4.86h-2.14V26a1.524 1.524 0 0 1-3.047 0v-4.062a1.523 1.523 0 0 1 3.047 0v.507h2.14a10.61 10.61 0 0 1 2.017-4.86l-1.516-1.516-.36.36a1.523 1.523 0 0 1-2.154-2.155l2.873-2.873a1.524 1.524 0 0 1 2.154 2.155l-.359.359 1.517 1.516a10.611 10.611 0 0 1 4.86-2.017v-2.14h-.508a1.523 1.523 0 0 1 0-3.047h4.062a1.523 1.523 0 1 1 0 3.046h-.508v2.141c1.804.26 3.464.97 4.86 2.017l1.517-1.516-.36-.36a1.524 1.524 0 0 1 2.155-2.154l2.873 2.873a1.523 1.523 0 1 1-2.155 2.154l-.359-.36-1.517 1.518a10.61 10.61 0 0 1 2.018 4.86h2.14v-.509a1.523 1.523 0 0 1 3.047 0V26z" fill="url(#d)"/></g><defs><linearGradient id="a" x1="47" y1="2" x2="47" y2="16" gradientUnits="userSpaceOnUse"><stop stop-color="#B4C4FF"/><stop offset="1" stop-color="#FF889D"/></linearGradient><linearGradient id="c" x1="26" y1="16.352" x2="26" y2="31.586" gradientUnits="userSpaceOnUse"><stop stop-color="#B4C4FF"/><stop offset="1" stop-color="#FFDBE1"/></linearGradient><linearGradient id="d" x1="26" y1="0" x2="26" y2="52" gradientUnits="userSpaceOnUse"><stop stop-color="#B4C4FF"/><stop offset="1" stop-color="#FFDBE1"/></linearGradient><clipPath id="b"><path fill="#fff" d="M0 0h52v52H0z"/></clipPath></defs></svg>