<svg width="51" height="51" fill="none" xmlns="http://www.w3.org/2000/svg"><path d="M45.205 34.773c-1.453 0-2.767.556-3.785 1.442l-7.94-6.072c.8-1.37 1.293-2.944 1.293-4.643 0-1.632-.46-3.145-1.205-4.479l5.444-3.992c1.029.932 2.38 1.516 3.874 1.516 3.196 0 5.796-2.6 5.796-5.795s-2.6-5.796-5.796-5.796a5.802 5.802 0 0 0-5.795 5.796c0 .864.203 1.676.543 2.413l-5.42 3.976c-1.692-1.784-4.068-2.912-6.714-2.912-.739 0-1.448.11-2.137.273l-1.335-3.56c2.066-1.208 3.472-3.425 3.472-5.985A6.962 6.962 0 0 0 18.546 0a6.962 6.962 0 0 0-6.955 6.955 6.962 6.962 0 0 0 6.955 6.954c.452 0 .891-.05 1.32-.133l1.334 3.558c-2.46 1.303-4.276 3.648-4.801 6.47l-4.892-.288c-.404-2.802-2.798-4.97-5.712-4.97A5.802 5.802 0 0 0 0 24.34c0 3.195 2.6 5.795 5.795 5.795 2.678 0 4.915-1.834 5.577-4.306l4.918.289c.16 2.36 1.172 4.482 2.774 6.032l-4.305 5.74c-.954-.495-2.021-.8-3.168-.8a6.962 6.962 0 0 0-6.955 6.954A6.962 6.962 0 0 0 11.591 51a6.962 6.962 0 0 0 6.955-6.955 6.916 6.916 0 0 0-1.924-4.776l4.311-5.748c1.354.774 2.899 1.252 4.567 1.252a9.238 9.238 0 0 0 6.596-2.77l7.912 6.05a5.726 5.726 0 0 0-.599 2.515c0 3.195 2.6 5.795 5.796 5.795 3.195 0 5.795-2.6 5.795-5.795s-2.6-5.795-5.795-5.795z" fill="#fff"/><path d="M45.205 34.773c-1.453 0-2.767.556-3.785 1.442l-7.94-6.072c.8-1.37 1.293-2.944 1.293-4.643 0-1.632-.46-3.145-1.205-4.479l5.444-3.992c1.029.932 2.38 1.516 3.874 1.516 3.196 0 5.796-2.6 5.796-5.795s-2.6-5.796-5.796-5.796a5.802 5.802 0 0 0-5.795 5.796c0 .864.203 1.676.543 2.413l-5.42 3.976c-1.692-1.784-4.068-2.912-6.714-2.912-.739 0-1.448.11-2.137.273l-1.335-3.56c2.066-1.208 3.472-3.425 3.472-5.985A6.962 6.962 0 0 0 18.546 0a6.962 6.962 0 0 0-6.955 6.955 6.962 6.962 0 0 0 6.955 6.954c.452 0 .891-.05 1.32-.133l1.334 3.558c-2.46 1.303-4.276 3.648-4.801 6.47l-4.892-.288c-.404-2.802-2.798-4.97-5.712-4.97A5.802 5.802 0 0 0 0 24.34c0 3.195 2.6 5.795 5.795 5.795 2.678 0 4.915-1.834 5.577-4.306l4.918.289c.16 2.36 1.172 4.482 2.774 6.032l-4.305 5.74c-.954-.495-2.021-.8-3.168-.8a6.962 6.962 0 0 0-6.955 6.954A6.962 6.962 0 0 0 11.591 51a6.962 6.962 0 0 0 6.955-6.955 6.916 6.916 0 0 0-1.924-4.776l4.311-5.748c1.354.774 2.899 1.252 4.567 1.252a9.238 9.238 0 0 0 6.596-2.77l7.912 6.05a5.726 5.726 0 0 0-.599 2.515c0 3.195 2.6 5.795 5.796 5.795 3.195 0 5.795-2.6 5.795-5.795s-2.6-5.795-5.795-5.795z" fill="url(#a)"/><defs><linearGradient id="a" x1="25.5" y1="0" x2="25.5" y2="51" gradientUnits="userSpaceOnUse"><stop stop-color="#B4C4FF"/><stop offset="1" stop-color="#FFDBE1"/></linearGradient></defs></svg>