<svg width="29" height="26" fill="none" xmlns="http://www.w3.org/2000/svg"><path d="M9.514 11.958a7.875 7.875 0 0 0-2.177-.317 6.84 6.84 0 0 0-2.729.559c.686-2.512 2.334-6.845 5.617-7.333a.78.78 0 0 0 .636-.56l.717-2.567a.78.78 0 0 0-.644-.982 5.45 5.45 0 0 0-.734-.05C6.26.708 2.357 4.821.71 10.71c-.966 3.454-1.25 8.648 1.131 11.918 1.333 1.829 3.277 2.806 5.778 2.903l.03.001a6.936 6.936 0 0 0 6.656-5.054 6.87 6.87 0 0 0-.634-5.254 6.932 6.932 0 0 0-4.157-3.266z" fill="#EAEAEA"/><path d="M28.108 15.224a6.931 6.931 0 0 0-4.158-3.266 7.874 7.874 0 0 0-2.176-.317c-1.1 0-2.017.251-2.729.559.686-2.512 2.334-6.845 5.617-7.333a.78.78 0 0 0 .636-.56l.717-2.567a.78.78 0 0 0-.644-.982 5.443 5.443 0 0 0-.734-.05c-3.94 0-7.843 4.113-9.49 10.002-.966 3.454-1.25 8.648 1.132 11.918 1.332 1.83 3.276 2.806 5.777 2.904h.03a6.937 6.937 0 0 0 6.656-5.054 6.874 6.874 0 0 0-.634-5.254z" fill="#EAEAEA"/></svg>