<svg width="12" height="20" fill="none" xmlns="http://www.w3.org/2000/svg"><path d="M.177 10.671c-.49 1.011.066 1.495 1.337 2.32 1.08.7 2.572.956 3.53 1.058l-3.777 3.81c-1.099 1.105.67 2.878 1.77 1.796l2.973-3.008c1.139 1.149 2.23 2.25 2.974 3.012 1.1 1.086 2.869-.672 1.781-1.796l-3.789-3.81c.97-.102 2.44-.373 3.508-1.058 1.27-.83 1.826-1.313 1.343-2.324-.292-.574-1.08-1.054-2.127-.224 0 0-1.416 1.137-3.698 1.137-2.284 0-3.698-1.137-3.698-1.137-1.048-.834-1.838-.35-2.127.224z" fill="#fff"/><path d="M5.5 10C8.528 10 11 7.761 11 5.006 11 2.239 8.528 0 5.5 0S0 2.239 0 5.006C0 7.76 2.472 10 5.5 10zm0-7.464c1.488 0 2.701 1.104 2.701 2.47 0 1.354-1.213 2.458-2.7 2.458-1.488 0-2.702-1.104-2.702-2.458 0-1.367 1.213-2.47 2.701-2.47z" fill="#fff"/></svg>