<svg width="20" height="20" fill="none" xmlns="http://www.w3.org/2000/svg"><path d="M10.234.006h-.005C4.844.006.464 4.386.464 9.774c0 2.137.689 4.117 1.86 5.725l-1.218 3.629 3.755-1.2a9.684 9.684 0 0 0 5.373 1.614C15.62 19.542 20 15.16 20 9.774 20 4.388 15.62.006 10.234.006z" fill="#50BC3F"/><path d="M15.918 13.8c-.236.665-1.171 1.217-1.917 1.378-.51.109-1.177.195-3.421-.735-2.87-1.19-4.72-4.106-4.863-4.295-.138-.19-1.16-1.545-1.16-2.947 0-1.401.711-2.084.998-2.377.236-.24.626-.35 1-.35.12 0 .229.006.326.01.287.013.431.03.62.483.236.568.81 1.97.879 2.113.07.145.139.34.041.53-.091.194-.172.281-.316.447-.144.166-.281.293-.425.472-.132.155-.28.32-.115.608.166.28.74 1.217 1.585 1.97 1.09.97 1.974 1.28 2.29 1.412.236.097.517.074.69-.109.218-.236.488-.626.762-1.01.196-.277.442-.311.701-.213.264.091 1.66.781 1.946.924.287.144.477.212.546.333.069.121.069.689-.167 1.356z" fill="#FAFAFA"/></svg>