<svg width="24" height="14" fill="none" xmlns="http://www.w3.org/2000/svg"><path d="M19.615 8.07c-.381-.48-.272-.695 0-1.125.005-.005 3.149-4.35 3.472-5.823h.002c.161-.537 0-.932-.778-.932h-2.576c-.655 0-.958.339-1.12.717 0 0-1.311 3.14-3.166 5.174-.599.588-.876.777-1.203.777-.16 0-.411-.189-.411-.726v-5.01c0-.644-.184-.932-.726-.932h-4.05c-.412 0-.656.3-.656.58 0 .61.928.751 1.024 2.469v3.727c0 .816-.148.967-.477.967-.876 0-3.001-3.152-4.26-6.76-.255-.7-.503-.982-1.164-.982H.95C.215.19.066.53.066.908c0 .67.876 3.998 4.072 8.396 2.13 3.002 5.13 4.628 7.858 4.628 1.64 0 1.841-.361 1.841-.982 0-2.869-.148-3.14.673-3.14.381 0 1.037.189 2.568 1.637 1.75 1.717 2.038 2.485 3.018 2.485h2.575c.734 0 1.107-.361.893-1.074-.49-1.499-3.8-4.582-3.95-4.788z" fill="#fff"/></svg>