<svg width="1906" height="608" fill="none" xmlns="http://www.w3.org/2000/svg"><path d="M.5 111.559c124.357-28.683 472.271-138.03 852.641-60.908 368.859 74.789 609.339 49.481 735.859 0 105.5-41.259 404-87.26 454 0" stroke="#fff"/><path d="M.5 131.559c124.357-28.683 472.271-138.03 852.641-60.908 368.859 74.789 609.339 49.481 735.859 0 105.5-41.259 404-87.26 454 0" stroke="#fff"/><path d="M.5 151.559c124.357-28.683 472.271-138.03 852.641-60.908 368.859 74.789 609.339 49.481 735.859 0 105.5-41.259 404-87.26 454 0" stroke="#fff"/><path d="M.5 171.559c124.357-28.683 472.271-138.03 852.641-60.908 368.859 74.789 609.339 49.481 735.859 0 105.5-41.259 404-87.26 454 0" stroke="#fff"/><path d="M.5 191.559c124.357-28.683 472.271-138.03 852.641-60.908 368.859 74.789 609.339 49.481 735.859 0 105.5-41.259 404-87.26 454 0" stroke="#fff"/><path d="M.5 211.559c124.357-28.683 472.271-138.03 852.641-60.908 368.859 74.789 609.339 49.481 735.859 0 105.5-41.259 404-87.26 454 0" stroke="#fff"/><path d="M.5 231.559c124.357-28.683 472.271-138.03 852.641-60.908 368.859 74.789 609.339 49.481 735.859 0 105.5-41.259 404-87.26 454 0" stroke="#fff"/><path d="M.5 251.559c124.357-28.683 472.271-138.03 852.641-60.908 368.859 74.789 609.339 49.481 735.859 0 105.5-41.259 404-87.26 454 0" stroke="#fff"/><path d="M.5 271.559c124.357-28.683 472.271-138.03 852.641-60.908 368.859 74.789 609.339 49.481 735.859 0 105.5-41.259 404-87.26 454 0" stroke="#fff"/><path d="M.5 291.559c124.357-28.683 472.271-138.03 852.641-60.908 368.859 74.789 609.339 49.481 735.859 0 105.5-41.259 404-87.26 454 0" stroke="#fff"/><path d="M.5 311.559c124.357-28.683 472.271-138.03 852.641-60.908 368.859 74.789 609.339 49.481 735.859 0 105.5-41.259 404-87.26 454 0" stroke="#fff"/><path d="M.5 331.559c124.357-28.683 472.271-138.03 852.641-60.908 368.859 74.789 609.339 49.481 735.859 0 105.5-41.259 404-87.26 454 0" stroke="#fff"/><path d="M.5 351.559c124.357-28.683 472.271-138.03 852.641-60.908 368.859 74.789 609.339 49.481 735.859 0 105.5-41.259 404-87.26 454 0" stroke="#fff"/><path d="M.5 366.559c124.357-28.683 472.271-138.03 852.641-60.908 368.859 74.789 609.339 49.481 735.859 0 105.5-41.259 404-87.26 454 0" stroke="#fff"/><path d="M.5 386.559c124.357-28.683 472.271-138.03 852.641-60.908 368.859 74.789 609.339 49.481 735.859 0 105.5-41.259 404-87.26 454 0" stroke="#fff"/><path d="M.5 406.559c124.357-28.683 472.271-138.03 852.641-60.908 368.859 74.789 609.339 49.481 735.859 0 105.5-41.259 404-87.26 454 0" stroke="#fff"/><path d="M.5 426.559c124.357-28.683 472.271-138.03 852.641-60.908 368.859 74.789 609.339 49.481 735.859 0 105.5-41.259 404-87.26 454 0" stroke="#fff"/><path d="M.5 446.559c124.357-28.683 472.271-138.03 852.641-60.908 368.859 74.789 609.339 49.481 735.859 0 105.5-41.259 404-87.26 454 0" stroke="#fff"/><path d="M.5 466.559c124.357-28.683 472.271-138.03 852.641-60.908 368.859 74.789 609.339 49.481 735.859 0 105.5-41.259 404-87.26 454 0" stroke="#fff"/><path d="M.5 486.559c124.357-28.683 472.271-138.03 852.641-60.908 368.859 74.789 609.339 49.481 735.859 0 105.5-41.259 404-87.26 454 0" stroke="#fff"/><path d="M.5 506.559c124.357-28.683 472.271-138.03 852.641-60.908 368.859 74.789 609.339 49.481 735.859 0 105.5-41.259 404-87.26 454 0" stroke="#fff"/><path d="M.5 526.559c124.357-28.683 472.271-138.03 852.641-60.908 368.859 74.789 609.339 49.481 735.859 0 105.5-41.259 404-87.26 454 0" stroke="#fff"/><path d="M.5 546.559c124.357-28.683 472.271-138.03 852.641-60.908 368.859 74.789 609.339 49.481 735.859 0 105.5-41.259 404-87.26 454 0" stroke="#fff"/><path d="M.5 566.559c124.357-28.683 472.271-138.03 852.641-60.908 368.859 74.789 609.339 49.481 735.859 0 105.5-41.259 404-87.26 454 0" stroke="#fff"/><path d="M.5 586.559c124.357-28.683 472.271-138.03 852.641-60.908 368.859 74.789 609.339 49.481 735.859 0 105.5-41.259 404-87.26 454 0" stroke="#fff"/><path d="M.5 606.559c124.357-28.683 472.271-138.03 852.641-60.908 368.859 74.789 609.339 49.481 735.859 0 105.5-41.259 404-87.26 454 0" stroke="#fff"/></svg>